<svg width="60" height="60" viewBox="0 0 60 60" fill="none" xmlns="http://www.w3.org/2000/svg">
<path d="M47.482 31.2892C48.3773 31.0548 48.7488 31.1919 49.2129 31.9923C52.4602 37.6079 55.718 43.2177 58.9395 48.8462C61.0066 52.4544 58.6184 56.5442 54.4594 56.5454C38.0484 56.5501 21.6367 56.5501 5.22422 56.5454C2.73165 56.5454 1.02188 55.3232 0.167584 52.9536C0.140504 52.9035 0.106585 52.8573 0.066803 52.8165V50.1329C5.94962 39.5075 12.1758 29.0778 18.2027 18.5356C20.5746 14.3849 22.966 10.2442 25.377 6.11377C26.9684 3.37627 30.2039 2.61455 32.7199 4.35595C33.3683 4.82191 33.9034 5.42792 34.2855 6.129C37.6324 11.9306 40.9809 17.731 44.3309 23.5302C44.816 24.3704 44.7516 24.7688 44.0578 25.4134C43.4906 25.8282 42.8238 25.7099 42.3609 25.0618C41.8523 24.3493 41.4727 23.5571 41.0332 22.8013C38.7387 18.8521 36.4629 14.8899 34.1684 10.9419C33.518 9.83564 32.8875 8.71533 32.2441 7.60908C31.8516 6.92705 31.3723 6.32822 30.5555 6.09385C30.0804 5.94601 29.5717 5.94523 29.0961 6.09162C28.6206 6.23801 28.2003 6.52473 27.8906 6.91416C27.4875 7.39697 27.2109 7.95596 26.9004 8.49385C23.3184 14.7071 19.732 20.9181 16.1414 27.1267C12.1203 34.1001 8.09766 41.0712 4.07344 48.0399C3.65743 48.7642 3.19571 49.4649 2.82657 50.2149C2.21251 51.4653 2.44571 52.6044 3.45469 53.4739C4.02422 53.9638 4.73204 54.0493 5.42813 54.0599C7.80001 54.0798 10.1719 54.088 12.5449 54.0599C26.2699 54.0505 39.9941 54.0485 53.7176 54.054C54.0866 54.0679 54.4562 54.0518 54.8227 54.006C56.843 53.679 57.7207 51.9552 56.7633 50.1388C56.1457 48.9669 55.4543 47.8431 54.7922 46.6993C52.2996 42.3927 49.827 38.0743 47.3215 33.7747C47.127 33.4396 46.9113 33.1114 46.7953 32.7364C46.5973 32.0884 46.8668 31.5235 47.482 31.2892Z" fill="#484E55"/>
<path d="M34.275 10.8892C35.6094 13.1767 36.9438 15.4646 38.2781 17.7528C39.6188 20.0622 40.9551 22.3747 42.2871 24.6903C42.7559 25.5106 43.1684 25.6759 44.0602 25.4146C44.5148 26.1911 44.9699 26.9677 45.4254 27.7442C45.5004 27.9118 45.3527 27.9856 45.2754 28.0806C45.1315 28.2388 45.0413 28.4386 45.018 28.6512C44.9946 28.8639 45.0392 29.0784 45.1453 29.2642C45.3645 29.6696 45.7488 29.8349 46.2176 29.7716C46.3488 29.754 46.4836 29.7165 46.6066 29.8067C46.8988 30.2989 47.191 30.7911 47.4832 31.2833C46.7707 31.9161 46.7063 32.3497 47.2031 33.2122C50.4105 38.7681 53.5957 44.3357 56.8371 49.8716C57.9691 51.8052 56.8957 53.5911 55.5715 54.0083C55.1848 54.1325 54.7812 54.1961 54.375 54.197C40.4945 54.197 26.6137 54.197 12.7324 54.197C12.6363 54.197 12.5402 54.1794 12.4441 54.17C12.2098 54.1267 12.0926 53.9497 11.9754 53.7692C11.0742 52.363 10.9887 50.9239 11.8219 49.4743C13.8922 45.8743 15.9684 42.2767 18.0504 38.6814C20.5504 34.3642 23.0438 30.0435 25.5305 25.7192C25.6238 25.5268 25.7504 25.3522 25.9043 25.2036C26.0121 25.1146 26.1117 25.1087 26.1867 25.2493C26.2957 25.5306 26.2617 25.8247 26.2629 26.1142C26.2629 29.0274 26.2629 31.9419 26.2629 34.8552C26.2629 35.8419 26.5348 36.7302 27.2484 37.4521C28.35 38.5665 29.659 38.829 31.1027 38.3239C32.4785 37.8411 33.368 36.5403 33.3856 35.0427C33.4113 32.8677 33.3914 30.6915 33.3926 28.5165C33.3926 27.2146 33.4043 25.9138 33.3926 24.6118C33.3703 22.6021 32.0379 21.1536 30.0527 20.9321C29.5395 20.8747 29.0625 21.1431 28.5539 21.0493C28.2211 20.8478 28.4801 20.6345 28.5727 20.4634C29.1727 19.3735 29.8043 18.3024 30.4277 17.2267C31.5559 15.2735 32.6852 13.3228 33.8156 11.3743C33.9258 11.181 34.0148 10.9524 34.275 10.8892Z" fill="#83CFD6"/>
<path d="M46.6066 29.8066C45.8262 30.041 45.3176 29.8992 44.9988 29.3507C44.6918 28.8234 44.8406 28.2586 45.4254 27.7441C46.1613 27.5097 46.6758 27.6503 46.9969 28.1836C47.3285 28.7355 47.209 29.2336 46.6066 29.8066Z" fill="#484E55"/>
<path d="M26.0707 25.1357C24.6738 27.5318 23.2773 29.9286 21.8813 32.3263C18.6363 37.9384 15.4148 43.5646 12.1453 49.1638C11.1094 50.9368 11.1516 52.5728 12.443 54.1712C9.82031 54.1712 7.19531 54.3118 4.57851 54.0986C2.95547 53.9661 1.91015 52.1907 2.46914 50.6556C2.57853 50.3665 2.7118 50.087 2.86758 49.82C11.016 35.7013 19.1656 21.5841 27.3164 7.46848C28.2106 5.91926 29.5805 5.41887 31.0172 6.10207C31.4758 6.3205 31.8571 6.67321 32.1106 7.1134C32.8453 8.36262 33.5531 9.62942 34.2703 10.8892C32.3289 14.2548 30.3859 17.6204 28.4414 20.9861C28.4027 21.2404 28.1672 21.2872 27.9973 21.4021C26.9004 22.1415 26.277 23.1482 26.2395 24.4923C26.2313 24.7161 26.2887 24.9611 26.0707 25.1357Z" fill="white"/>
<path d="M26.0707 25.1355C26.0426 23.9953 26.2195 22.9254 27.0164 22.0289C27.4207 21.573 27.9234 21.273 28.4426 20.9859C29.4973 20.6848 30.5379 20.6344 31.5399 21.1887C32.843 21.9035 33.5414 23.0109 33.552 24.4875C33.5754 28.0031 33.5754 31.5187 33.552 35.0344C33.5414 37.1109 31.8164 38.7984 29.802 38.7609C28.82 38.7493 27.8818 38.3529 27.1889 37.657C26.496 36.961 26.1038 36.0211 26.0965 35.039C26.0777 31.95 26.0965 28.8609 26.0906 25.7719C26.0906 25.5621 26.0777 25.3488 26.0707 25.1355Z" fill="#484E55"/>
<path d="M30 41.578C32.1715 41.7386 33.7102 43.4835 33.5473 45.6011C33.3984 47.5324 31.609 49.1402 29.734 49.0265C27.5332 48.8917 25.9477 47.1398 26.1012 45.0116C26.2418 43.0077 28.0371 41.4316 30 41.578Z" fill="#484E55"/>
<path d="M31.2258 29.7656C31.2258 31.4379 31.2316 33.109 31.2258 34.7801C31.2258 35.7574 30.6774 36.3762 29.8465 36.3844C29.0156 36.3926 28.4402 35.7797 28.4309 34.8176C28.4191 33.184 28.4309 31.5516 28.4309 29.9191C28.4309 28.1894 28.4238 26.4598 28.4309 24.7301C28.4309 23.6062 29.1656 22.9582 30.1524 23.1715C30.8285 23.318 31.2234 23.8852 31.227 24.7512C31.2305 26.4211 31.2258 28.0934 31.2258 29.7656Z" fill="#459096"/>
<path d="M29.8348 46.6522C29.4733 46.6526 29.1255 46.5138 28.8637 46.2646C28.6018 46.0155 28.446 45.675 28.4285 45.3139C28.4062 44.5663 29.066 43.9206 29.8418 43.9288C30.0206 43.9295 30.1976 43.9654 30.3625 44.0345C30.5274 44.1035 30.6772 44.2044 30.8031 44.3314C30.9291 44.4583 31.0288 44.6088 31.0966 44.7743C31.1644 44.9397 31.1989 45.117 31.1982 45.2958C31.1975 45.4746 31.1616 45.6515 31.0926 45.8165C31.0235 45.9814 30.9226 46.1311 30.7957 46.2571C30.6687 46.3831 30.5182 46.4828 30.3528 46.5506C30.1873 46.6184 30.0101 46.6529 29.8312 46.6522H29.8348Z" fill="#459096"/>
</svg>
