<svg width="60" height="60" viewBox="0 0 60 60" fill="none" xmlns="http://www.w3.org/2000/svg">
<path d="M5.34374 59.8827C4.38984 59.4983 4.07109 58.7718 4.07343 57.7733C4.08984 50.0249 4.08984 42.2757 4.07343 34.5257C4.07343 34.2339 3.88359 33.9398 3.78281 33.6503C3.67148 33.328 3.46757 33.0069 3.46523 32.6835C3.44413 30.5003 3.44413 28.3159 3.49101 26.1339C3.51122 25.5948 3.63579 25.0647 3.85781 24.573C4.63359 22.8304 5.45624 21.1089 6.28124 19.3886C6.62109 18.6855 7.5082 18.5683 7.83632 19.2116C7.96344 19.5218 7.96344 19.8695 7.83632 20.1796C7.26562 21.4886 6.63398 22.7694 6.02578 24.0597C5.94492 24.2319 5.86874 24.4112 5.75976 24.6456H53.3648C53.3086 24.4898 53.2664 24.3327 53.1984 24.1874C51.5883 20.7702 49.9699 17.3566 48.3691 13.9358C48.2086 13.5913 48.0234 13.4507 47.6309 13.4671C46.5305 13.4976 45.4277 13.4741 44.3262 13.4812C44.1548 13.4665 43.9824 13.493 43.8234 13.5585C41.9801 14.605 40.1461 15.6679 38.4199 16.6605C38.843 17.9495 39.2754 19.1741 39.634 20.4105C39.7734 20.8921 39.3316 21.4077 38.8137 21.4944C38.5843 21.5271 38.3527 21.5404 38.1211 21.5343C32.418 21.5343 26.7172 21.5343 21.0187 21.5343C20.8258 21.5371 20.6329 21.5281 20.441 21.5073C19.7766 21.4241 19.3687 20.8593 19.5562 20.2265C19.8398 19.2667 20.1539 18.3151 20.4727 17.3659C20.6379 16.8761 20.9941 16.6206 21.5273 16.6265C22.0828 16.6323 22.6395 16.6265 23.3062 16.6265C22.6945 15.5718 22.1344 14.5839 21.5484 13.6183C21.4852 13.514 21.2473 13.4753 21.0902 13.4753C17.8629 13.4671 14.6355 13.4636 11.4082 13.4847C11.2963 13.499 11.189 13.5379 11.0939 13.5987C10.9989 13.6595 10.9185 13.7406 10.8586 13.8362C10.4613 14.5851 10.1191 15.3597 9.75234 16.1273C9.43476 16.7905 8.99296 17.0179 8.48554 16.787C7.97812 16.5562 7.85156 16.0546 8.15273 15.4066C8.55468 14.5499 8.98593 13.7108 9.35507 12.8425C9.71484 11.9976 10.3371 11.6706 11.223 11.6706C14.0824 11.6835 16.943 11.6706 19.8023 11.6706H20.5055C20.4668 10.7214 21.1523 10.371 21.8344 9.9796C27.0844 6.96163 32.3301 3.93351 37.5715 0.895226C38.7129 0.234288 39.2777 0.383116 39.9328 1.52335C41.7188 4.60773 43.5492 7.67335 45.2555 10.8081C45.6645 11.5593 46.091 11.7116 46.8375 11.6882C49.4414 11.6026 49.3043 11.7925 50.2664 13.8421C51.8734 17.2616 53.4871 20.6776 55.1074 24.0901C55.5141 24.9248 55.7234 25.8418 55.7191 26.7702C55.7105 28.6452 55.7105 30.5202 55.7191 32.3952C55.7191 32.9331 55.6207 33.4112 55.2375 33.8355C55.098 33.989 55.0828 34.2925 55.0828 34.528C55.0758 42.278 55.0758 50.0272 55.0828 57.7757C55.0828 58.7729 54.7664 59.5007 53.8125 59.8851L5.34374 59.8827ZM53.9145 26.5171H5.24296V32.4608H47.6332C47.8844 32.4548 48.1356 32.4645 48.3855 32.4901C48.8719 32.5534 49.1496 32.8417 49.1695 33.3351C49.1895 33.8038 48.8566 34.1706 48.3645 34.2327C48.1719 34.2486 47.9785 34.2521 47.7855 34.2433H5.90742V58.1144H53.2512V34.2433C52.9863 34.2433 52.759 34.2433 52.5316 34.2433C51.8918 34.228 51.5215 33.9198 51.5004 33.3925C51.4781 32.8265 51.8309 32.4937 52.5129 32.4667C52.9723 32.4491 53.4328 32.4667 53.9191 32.4667L53.9145 26.5171ZM43.698 11.5687L38.4305 2.44562L22.4766 11.6566C24.007 14.3038 25.5094 16.9066 27.0152 19.5081C27.0703 19.6019 27.1687 19.7425 27.2391 19.7425C28.1273 19.6862 29.0578 20.0132 29.9016 19.5304C32.3109 18.1507 34.7168 16.764 37.1191 15.3702L43.698 11.5687ZM33.252 19.6441L33.2836 19.7425H37.5855C37.4684 19.3698 37.3676 19.0218 37.2422 18.6878C37.2012 18.5706 37.0934 18.4042 37.0184 18.4054C36.4324 18.4148 35.7938 18.3327 35.2605 18.5226C34.5504 18.7792 33.9187 19.2597 33.252 19.6441ZM25.0113 19.7448C24.7441 18.6245 24.0949 18.1628 23.0016 18.3702C22.7789 18.4124 22.5328 18.3468 22.3125 18.3878C22.2362 18.4002 22.1633 18.4284 22.0986 18.4706C22.0338 18.5127 21.9785 18.568 21.9363 18.6327C21.7875 18.9843 21.6961 19.3523 21.573 19.7448H25.0113Z" fill="#484E55"/>
<path d="M53.9145 26.5171V32.4608C53.4293 32.4608 52.9688 32.4468 52.5082 32.4608C51.8262 32.4878 51.4735 32.8206 51.4957 33.3866C51.5168 33.914 51.8871 34.2222 52.527 34.2374C52.7543 34.2433 52.9817 34.2374 53.2465 34.2374V58.1085H5.90275V34.2433H47.7856C47.9786 34.2521 48.1719 34.2485 48.3645 34.2327C48.8567 34.1706 49.1848 33.8026 49.1696 33.3351C49.1496 32.8382 48.8719 32.5534 48.3856 32.4901C48.1357 32.4645 47.8844 32.4548 47.6332 32.4608H5.24298V26.5171H53.9145ZM29.5828 56.9858H50.7938C51.8414 56.9858 52.1707 56.6565 52.1707 55.6007C52.1707 49.3202 52.1707 43.0405 52.1707 36.7616C52.1707 35.7163 51.8321 35.3647 50.7856 35.3647C36.641 35.3647 22.4969 35.3647 8.35314 35.3647C7.31368 35.3647 6.97736 35.7163 6.97736 36.771C6.97736 43.0499 6.97736 49.3296 6.97736 55.6101C6.97736 56.6647 7.30782 56.987 8.36134 56.9882L29.5828 56.9858Z" fill="white"/>
<path d="M43.698 11.5688L37.1191 15.3704C34.7168 16.7594 32.3109 18.1457 29.9016 19.5293C29.0578 20.0122 28.1273 19.6852 27.2391 19.7415C27.1687 19.7415 27.0703 19.6008 27.0152 19.5071C25.5094 16.9067 24.007 14.304 22.4766 11.6555L38.4305 2.44458L43.698 11.5688ZM33.1793 12.8379C32.4082 12.6293 31.7426 12.4383 31.0699 12.2708C30.8455 12.2051 30.6044 12.2296 30.3978 12.3391C30.1912 12.4485 30.0355 12.6342 29.9637 12.8567C29.9278 12.9676 29.915 13.0846 29.9261 13.2006C29.9371 13.3167 29.9717 13.4292 30.0278 13.5314C30.0838 13.6335 30.1602 13.7231 30.2521 13.7947C30.3441 13.8663 30.4497 13.9184 30.5625 13.9477C31.5383 14.2368 32.5215 14.5047 33.5121 14.7516C34.0781 14.8911 34.5117 14.6637 34.6559 14.1422C35.1824 12.2321 35.6926 10.318 36.1863 8.40005C36.3305 7.83755 36.0598 7.38638 35.5816 7.25981C35.1035 7.13325 34.6512 7.41333 34.4871 7.96294C34.343 8.44106 34.2316 8.92974 34.1016 9.41255C33.8016 10.5387 33.4957 11.6649 33.1793 12.8379Z" fill="white"/>
<path d="M33.252 19.644C33.9187 19.2597 34.5504 18.7792 35.2617 18.5214C35.7937 18.328 36.4336 18.4042 37.0195 18.4042C37.0945 18.4042 37.2023 18.5753 37.2434 18.6866C37.3687 19.0253 37.4684 19.3733 37.5867 19.7413H33.2812L33.252 19.644Z" fill="white"/>
<path d="M25.0113 19.745H21.5731C21.6902 19.3524 21.7875 18.9798 21.9363 18.6329C21.9786 18.5681 22.0338 18.5129 22.0986 18.4707C22.1634 18.4286 22.2362 18.4004 22.3125 18.388C22.5363 18.3469 22.7813 18.4126 23.0016 18.3704C24.0949 18.1641 24.7442 18.6247 25.0113 19.745Z" fill="white"/>
<path d="M50.3508 50.4304V55.2082H8.81953V50.4269C9.29766 50.4269 9.75703 50.4433 10.2176 50.4269C10.8375 50.3976 11.2289 50.032 11.2184 49.5281C11.2078 49.0242 10.7941 48.6667 10.1871 48.6539C9.74648 48.6445 9.30469 48.6539 8.81836 48.6539V43.7742H50.3508V48.6468H14.9918C13.9652 48.6468 13.5117 48.9152 13.5012 49.5257C13.4906 50.1363 13.9535 50.4304 14.9684 50.4304H50.3508Z" fill="#66BAC0"/>
<rect x="8" y="43" width="43" height="6.5" fill="#83CFD6"/>
<path d="M50.3508 37.1765V41.8945H8.80664V37.1765H50.3508Z" fill="#66BAC0"/>
<rect x="22.1299" y="11.2461" width="19.0011" height="11.2913" transform="rotate(-30.2514 22.1299 11.2461)" fill="#83CFD6"/>
<path d="M29.5828 56.9836H8.37187C7.31718 56.9836 6.98788 56.6566 6.98788 55.6054C6.98788 49.3257 6.98788 43.046 6.98788 36.7664C6.98788 35.7117 7.32421 35.3601 8.36367 35.3601C22.5082 35.3601 36.6523 35.3601 50.7961 35.3601C51.8426 35.3601 52.1812 35.7117 52.1812 36.757C52.1812 43.0359 52.1812 49.3156 52.1812 55.5961C52.1812 56.6507 51.8519 56.9812 50.8043 56.9812L29.5828 56.9836ZM50.3508 50.4304H14.9684C13.9535 50.4304 13.4906 50.1433 13.5012 49.5257C13.5117 48.9082 13.9699 48.6468 14.9918 48.6468H50.3508V43.7742H8.81835V48.648C9.30468 48.648 9.74648 48.6398 10.1871 48.648C10.7941 48.6609 11.2066 49.0171 11.2184 49.5222C11.2301 50.0273 10.8375 50.3918 10.2176 50.4211C9.7582 50.4421 9.29765 50.4211 8.81953 50.4211V55.2023H50.3508V50.4304ZM50.3508 37.1765H8.80663V41.8945H50.3508V37.1765Z" fill="#484E55"/>
<path d="M29.6742 12.9633C29.5835 12.7973 29.5427 12.6087 29.5569 12.4201C29.571 12.2315 29.6395 12.051 29.7539 11.9004C29.8603 11.7301 30.0172 11.5972 30.2027 11.5203C30.3882 11.4434 30.593 11.4264 30.7887 11.4715C31.4004 11.5887 32.0063 11.7457 32.6145 11.8899C32.7012 11.911 32.7258 11.8899 32.7457 11.8078C33.141 10.0891 33.5375 8.37463 33.9352 6.66447C33.9619 6.51683 34.0204 6.37675 34.1066 6.25393C34.1928 6.13111 34.3046 6.02848 34.4344 5.95314C34.6022 5.8474 34.7978 5.79435 34.996 5.80082C35.1942 5.8073 35.386 5.87301 35.5465 5.98947C35.712 6.09609 35.8425 6.24906 35.9217 6.42931C36.0009 6.60956 36.0253 6.80913 35.9918 7.00314C35.9855 7.04808 35.9769 7.09267 35.966 7.13674C35.4582 9.32424 34.9504 11.5117 34.4426 13.6992C34.4089 13.8799 34.3075 14.0409 34.159 14.1492C34.0754 14.2095 33.9794 14.2503 33.8781 14.2688C33.7767 14.2872 33.6725 14.2828 33.5731 14.2559C33.2215 14.1738 32.877 14.0942 32.5278 14.0133C31.8246 13.8492 31.1184 13.6852 30.409 13.5211C30.2532 13.4874 30.1068 13.42 29.9798 13.3236C29.8529 13.2272 29.7486 13.1043 29.6742 12.9633Z" fill="#484E55"/>
<path d="M30.3293 12.061C30.3899 12.0229 30.4576 11.9976 30.5284 11.9867C30.5991 11.9758 30.6714 11.9796 30.7406 11.9977C31.3558 12.1418 31.9722 12.2742 32.584 12.4301C32.6551 12.4514 32.7299 12.4572 32.8035 12.4471C32.877 12.4371 32.9475 12.4113 33.0103 12.3717C33.073 12.332 33.1265 12.2794 33.1672 12.2173C33.2079 12.1552 33.2348 12.0851 33.2461 12.0117C33.6422 10.2703 34.05 8.53128 34.4531 6.7969C34.4727 6.67488 34.5315 6.56257 34.6207 6.47698C34.6963 6.40802 34.7909 6.36326 34.8921 6.34843C34.9934 6.3336 35.0968 6.3494 35.189 6.39378C35.2803 6.4367 35.3563 6.50652 35.4068 6.59387C35.4573 6.68122 35.4799 6.78191 35.4715 6.88245C35.4685 6.93101 35.4615 6.97923 35.4504 7.02659C34.9418 9.20081 34.4367 11.3762 33.9351 13.5528C33.8929 13.7332 33.8402 13.766 33.6597 13.7239C32.6051 13.4801 31.5504 13.2356 30.4957 12.9903C30.4081 12.9716 30.327 12.9301 30.2607 12.8699C30.1944 12.8098 30.1451 12.7331 30.118 12.6478C30.0908 12.5624 30.0868 12.4714 30.1062 12.384C30.1256 12.2966 30.1678 12.2159 30.2285 12.15C30.2601 12.1182 30.2938 12.0885 30.3293 12.061Z" fill="white"/>
</svg>
