<svg width="60" height="60" viewBox="0 0 60 60" fill="none" xmlns="http://www.w3.org/2000/svg">
<path d="M0.247269 46.2983C0.481644 46.4683 0.6293 46.746 0.950394 46.794C1.03244 46.825 1.10226 46.8816 1.14938 46.9556C1.19649 47.0295 1.21837 47.1168 1.21172 47.2042C1.20586 47.7503 1.37813 48.314 1.06289 48.8319C0.697269 48.8319 0.513284 49.1378 0.251956 49.3148L0.247269 46.2983Z" fill="#FEFEFE"/>
<path d="M1.05469 48.8321C0.996094 48.1536 1.18359 47.4622 0.9375 46.7942C1.73906 46.7262 1.97578 46.4719 1.97812 45.6704C1.9875 42.7086 1.99648 39.7473 2.00508 36.7864C2.20547 36.6786 2.42227 36.7325 2.63086 36.7325C19.9816 36.7325 37.3324 36.7325 54.6832 36.7325C55.4801 36.7325 55.5234 36.7641 55.5246 37.5844C55.5309 41.8547 55.5309 46.1251 55.5246 50.3954C55.5246 50.6637 55.5434 50.9426 55.3359 51.1629C52.3828 51.17 49.4297 51.1864 46.4766 51.1794C45.9164 51.1794 45.5086 51.3563 45.2672 51.8708C44.9487 52.0087 44.6053 52.0799 44.2582 52.0799C43.9111 52.0799 43.5677 52.0087 43.2492 51.8708C42.9902 51.2848 42.5133 51.1782 41.925 51.1782C28.8234 51.1876 15.7219 51.1942 2.62031 51.1981C2.09883 51.1981 1.88906 51.0809 1.97344 50.5465C1.99104 50.3344 1.99104 50.1212 1.97344 49.909C1.98047 49.2083 1.76484 48.9598 1.05469 48.8321Z" fill="#ECF4FC"/>
<path d="M59.6379 33.9843C59.6379 31.8316 57.9891 30.1839 55.8281 30.1769C53.8946 30.1706 51.9613 30.1706 50.0285 30.1769C49.8983 30.1876 49.7676 30.1637 49.6496 30.1075C49.5317 30.0513 49.4307 29.9648 49.357 29.8569C48.2684 28.4507 47.1563 27.0679 46.0512 25.6757C41.9129 20.4585 37.7699 15.2421 33.6223 10.0265C33.3879 9.74054 33.3527 9.55773 33.5895 9.24952C34.0271 8.6564 34.2861 7.95056 34.336 7.21515C34.4275 6.27561 34.2149 5.33151 33.7294 4.52191C33.244 3.71231 32.5114 3.08002 31.6395 2.71817C30.7676 2.35631 29.8026 2.28404 28.8865 2.51198C27.9704 2.73992 27.1518 3.25603 26.5512 3.98429C25.2762 5.54874 25.1766 7.6171 26.3309 9.29523C26.5266 9.57999 26.4949 9.73234 26.2992 9.9796C21.0367 16.5984 15.7801 23.2234 10.5293 29.8546C10.4557 29.9626 10.3551 30.0495 10.2375 30.1066C10.1199 30.1638 9.98942 30.1892 9.85899 30.1804C7.90665 30.1663 5.9543 30.1687 3.99961 30.1745C3.22316 30.1757 2.46601 30.4165 1.83154 30.8641C1.19708 31.3117 0.716241 31.9442 0.454691 32.6753C0.391409 32.8464 0.437112 33.0702 0.247269 33.1898V46.2983C0.424222 46.6569 0.671488 46.9171 1.10743 46.9124C1.74493 46.8093 2.04493 46.5269 2.13868 45.9374C2.16739 45.6881 2.17679 45.437 2.1668 45.1862C2.1668 42.7206 2.1668 40.255 2.1668 37.7894C2.1668 37.5233 2.11875 37.2468 2.27461 36.9983C2.50899 36.7499 2.81602 36.8366 3.09493 36.8366C20.3731 36.8366 37.6512 36.8366 54.9293 36.8366C55.6629 36.8366 56.3965 36.8636 57.1313 36.8601C57.5133 36.8601 57.7067 37.0206 57.702 37.412C57.702 37.6054 57.702 37.7987 57.702 37.9921V47.2112C57.702 48.2355 57.7113 49.2597 57.702 50.2839C57.6938 50.9085 57.6246 50.9659 56.9883 50.987C56.4481 50.9999 55.9067 50.9694 55.3653 51.0034C52.4297 50.98 49.4942 51.0034 46.5574 50.9952C45.9469 50.9952 45.4653 51.205 45.1863 51.7769C45.0692 52.4917 45.2965 52.8456 46.0067 53.0659C48.9445 53.0917 51.8813 53.0659 54.818 53.0776C55.5914 53.0776 56.3637 53.0894 57.1371 53.0964C57.3914 53.0964 57.6281 53.1116 57.7008 53.455C57.9352 54.5776 57.1149 55.6874 55.9723 55.7437C55.3946 55.7718 54.8133 55.7718 54.2344 55.7437C54.0996 55.7366 53.9649 55.7437 53.8289 55.7437H4.78243C4.47305 55.7437 4.16368 55.7554 3.85547 55.7284C3.4766 55.7007 3.11634 55.5533 2.82671 55.3075C2.53708 55.0617 2.33307 54.7302 2.24414 54.3608C1.98633 53.3507 2.17266 53.1034 3.19219 53.0999H41.4621C41.7516 53.0999 42.0422 53.1116 42.3317 53.0894C43.077 53.0319 43.4121 52.6405 43.3863 51.8671C43.152 51.2741 42.6938 51.0151 42.0762 50.9952C41.7856 50.9858 41.4961 50.9894 41.2067 50.9894H3.52266C3.31055 50.9894 3.09727 50.9894 2.88516 50.9894C2.24883 50.9706 2.1961 50.9179 2.17266 50.2862C2.17266 50.1515 2.17266 50.0155 2.16211 49.8808C2.12696 49.2737 1.85977 48.8519 1.23282 48.7206C0.745316 48.6585 0.444144 48.9034 0.247269 49.3183V54.6538C1.22813 57.1042 2.19024 57.744 4.89141 57.744H55.1133C55.3254 57.744 55.5387 57.744 55.7508 57.744C58.0758 57.689 59.6379 56.0894 59.6379 53.7597C59.6395 47.1675 59.6395 40.5757 59.6379 33.9843ZM23.2535 16.6511C24.7149 14.8066 26.1832 12.9679 27.634 11.1151C27.8602 10.8257 28.0359 10.7636 28.3934 10.9054C28.9037 11.1127 29.4501 11.2167 30.0008 11.2113C30.5516 11.2058 31.0959 11.0911 31.602 10.8737C31.8785 10.7566 32.0039 10.8105 32.175 11.0261C34.2399 13.6429 36.3129 16.2515 38.4574 18.955H21.4383C22.0723 18.1499 22.6617 17.3987 23.2535 16.6511ZM46.6652 30.1745C38.5465 30.1745 30.4277 30.1722 22.309 30.1675C21.7992 30.1675 21.3984 30.2765 21.1758 30.771C20.4957 31.0095 19.7547 31.0095 19.0746 30.771C18.8918 30.314 18.5438 30.1605 18.0668 30.1651C16.4426 30.178 14.8195 30.1651 13.1953 30.1651H12.532L15.7477 26.1105C17.0555 24.4616 18.3727 22.8187 19.6617 21.1546C19.9043 20.8417 20.1574 20.7491 20.5336 20.7503C26.8164 20.7597 33.0985 20.7597 39.3797 20.7503C39.675 20.7503 39.9199 20.7597 40.1367 21.0351C42.4875 24.0241 44.8473 27.0069 47.216 29.9835C47.2466 30.041 47.2732 30.1005 47.2957 30.1616L46.6652 30.1745Z" fill="#484E55"/>
<path d="M19.0746 30.7759L21.1758 30.77C21.1101 31.5903 21.4207 31.9149 22.2773 31.9149H53.9578C54.1922 31.9149 54.4207 31.9267 54.6515 31.9325C54.7627 31.9679 54.8621 32.0332 54.9387 32.1212C55.4719 32.9919 55.6488 33.9188 55.3441 34.9126C55.132 34.9208 54.9199 34.9349 54.7078 34.9349C37.3547 34.9349 20.0008 34.9403 2.64609 34.9513C2.06718 34.9513 1.95937 34.7907 1.97343 34.2481C2.01328 32.7106 2.79374 31.9114 4.35468 31.9114C8.91406 31.9114 13.4746 31.9114 18.0363 31.9114C18.8519 31.9138 19.1543 31.5763 19.0746 30.7759Z" fill="#459096"/>
<path d="M43.2574 51.8696H45.2754C45.2602 52.3817 45.4512 52.7603 45.9586 52.9349C46.6512 53.0146 47.3473 52.9665 48.041 52.9688C50.3215 52.9759 52.602 52.9688 54.8824 52.9688C55.4367 52.9688 55.5375 53.0685 55.4777 53.6134C55.3781 54.5263 55.2598 55.4403 54.3059 55.9208C54.1125 55.9302 53.9203 55.9478 53.7281 55.9478H4.32657C3.0375 55.9478 2.24297 55.3899 2.02969 54.2978C1.96055 53.9462 2.00157 53.5677 1.98633 53.2009C1.97813 53.0028 2.06367 52.9208 2.26055 52.9325C2.41524 52.9419 2.56992 52.9325 2.7293 52.9325H42.0352C42.9598 52.9349 43.2 52.7228 43.2574 51.8696Z" fill="#459096"/>
<path d="M55.3441 51.1607C55.3441 46.5997 55.3359 42.0388 55.3594 37.479C55.3594 36.9165 55.2035 36.7759 54.6562 36.7759C37.1094 36.79 19.5637 36.7931 2.01913 36.7853C2.15156 36.5626 2.36484 36.688 2.53242 36.688C20.7949 36.681 39.0574 36.6755 57.3199 36.6716C57.8039 36.6716 57.9187 36.7888 57.9164 37.2693C57.8961 41.7326 57.8961 46.1966 57.9164 50.6615C57.9164 51.1009 57.8086 51.2216 57.3785 51.1935C56.6976 51.149 56.0156 51.1677 55.3441 51.1607Z" fill="#DAEBFA"/>
<path d="M30.1664 9.39832C29.0027 9.48269 28.057 8.95535 27.5637 7.9534C27.328 7.4838 27.2405 6.95373 27.3127 6.43332C27.3849 5.91291 27.6134 5.42667 27.968 5.03895C28.7039 4.22684 29.7797 3.94559 30.7488 4.31004C32.2512 5.61199 31.6488 8.70574 30.1664 9.39832Z" fill="#83CFD6"/>
<path d="M54.3035 55.923C54.9042 55.3205 55.266 54.5207 55.3219 53.6718C55.3652 53.203 55.3113 53.0155 54.7816 53.0202C52.0441 53.0425 49.3066 53.0319 46.568 53.0272C46.3641 53.0272 46.1414 53.0976 45.9586 52.9347C49.7637 52.9347 53.5699 52.944 57.375 52.9253C57.8262 52.9253 57.9363 53.0565 57.9082 53.4784C57.8789 53.9214 57.9082 54.3667 57.7031 54.7792C57.3516 55.4894 56.7937 55.9206 55.9816 55.9417C55.4226 55.9558 54.8625 55.93 54.3035 55.923Z" fill="#83CFD6"/>
<path d="M55.3441 34.9136C55.3137 33.8742 55.3781 32.8125 54.6516 31.9335C55.2094 31.923 55.7684 31.8503 56.3203 31.9933C57.4922 32.2968 58.2305 33.6093 57.9012 34.7601C57.8344 34.9945 57.6785 34.9324 57.5426 34.9324C56.8102 34.9324 56.0777 34.9218 55.3441 34.9136Z" fill="#83CFD6"/>
<path d="M30.1664 9.39854C31.0641 8.50674 31.5574 7.46963 31.4637 6.16299C31.4133 5.45986 31.0055 4.92314 30.7488 4.31494C31.9207 4.6583 32.734 5.86064 32.5898 7.04072C32.4281 8.36025 31.4121 9.34932 30.1664 9.39854Z" fill="#459096"/>
<path d="M36.3352 48.9704C34.9008 48.8707 33.757 48.477 32.8512 47.543C32.4258 47.1047 32.3906 46.6407 32.741 46.261C33.109 45.8614 33.6 45.8719 34.0687 46.3032C34.8387 47.0133 35.7223 47.3579 36.7641 47.1141C37.2996 46.9887 37.7414 46.6946 37.8258 46.1063C37.9125 45.4922 37.4637 45.1981 36.9949 44.9907C36.1887 44.6309 35.3648 44.311 34.5445 43.9829C33.5906 43.6008 33.0551 42.8801 32.9777 41.8817C32.898 40.8329 33.3668 40.0067 34.2586 39.4547C35.7105 38.5512 37.7742 38.9461 39.0516 40.0407C39.4207 40.3571 39.4394 40.7848 39.1547 41.1879C39.0921 41.2812 39.011 41.3606 38.9165 41.4212C38.822 41.4819 38.716 41.5225 38.6052 41.5405C38.4943 41.5585 38.3809 41.5536 38.2721 41.526C38.1632 41.4984 38.0612 41.4488 37.9723 41.3801C37.3324 40.9442 36.6644 40.6477 35.8687 40.718C35.5386 40.7288 35.2235 40.8586 34.9816 41.0836C34.5422 41.5231 34.6301 42.0997 35.202 42.3469C35.9777 42.6821 36.7793 42.9598 37.5457 43.3043C38.5945 43.7731 39.4383 44.4598 39.5637 45.6985C39.7101 47.1633 38.6754 48.484 37.1391 48.8309C36.8309 48.9071 36.5074 48.995 36.3352 48.9704Z" fill="#484E55"/>
<path d="M10.1133 38.9695C10.9559 38.9437 11.809 39.2109 12.6012 39.6878C13.1238 40.0019 13.3043 40.5082 13.0629 40.9476C12.8109 41.4164 12.2801 41.516 11.7152 41.1914C10.5832 40.5421 9.44062 40.5093 8.31679 41.1832C7.2375 41.8324 6.71132 42.8238 6.74531 44.0835C6.80039 46.1449 8.93437 47.6906 10.8469 47.073C11.2487 46.9314 11.6105 46.6951 11.9016 46.3839C12.327 45.9609 12.8098 45.9316 13.1789 46.2761C13.5762 46.6476 13.5633 47.1269 13.1437 47.6038C11.9719 48.9246 9.8789 49.323 8.08359 48.5624C5.8289 47.6074 4.61953 45.2742 5.12226 42.8472C5.58632 40.6101 7.66054 38.9671 10.1133 38.9695Z" fill="#484E55"/>
<path d="M41.0402 43.9185C41.0402 42.6435 41.0402 41.3685 41.0402 40.0946C41.0402 39.2743 41.3344 38.9919 42.1594 38.9907C43.1641 38.9907 44.1684 38.9907 45.1723 38.9907C45.8414 38.9907 46.2141 39.3224 46.2 39.886C46.1883 40.4216 45.825 40.7239 45.1793 40.7286C44.5336 40.7333 43.8656 40.7438 43.2094 40.7228C42.9 40.7134 42.7617 40.7778 42.7816 41.1259C42.8098 41.6466 42.8098 42.1684 42.7816 42.6892C42.7652 43.0067 42.8848 43.0782 43.1766 43.0688C43.7742 43.0489 44.3742 43.0524 44.9719 43.0688C45.5953 43.0829 45.9586 43.4286 45.9504 43.9677C45.941 44.4798 45.5895 44.7985 44.9895 44.8091C44.4105 44.8208 43.8305 44.8302 43.2516 44.8091C42.9152 44.795 42.7559 44.863 42.7828 45.245C42.8238 45.8579 42.5848 46.6642 42.8918 47.0356C43.1988 47.4071 44.0484 47.1177 44.6566 47.1528C44.9637 47.1716 45.2789 47.1528 45.5766 47.2161C46.0102 47.3087 46.2152 47.6228 46.1988 48.0657C46.1824 48.5087 45.9563 48.8321 45.518 48.8638C44.2664 48.9511 43.0102 48.9511 41.7586 48.8638C41.2219 48.8274 41.0367 48.4138 41.0402 47.9122C41.0402 47.8735 41.0402 47.8349 41.0402 47.795C41.0394 46.5044 41.0394 45.2122 41.0402 43.9185Z" fill="#484E55"/>
<path d="M14.8746 43.8622C14.8746 42.5673 14.8652 41.2736 14.8746 39.9786C14.8816 39.2169 15.4606 38.7611 16.084 39.02C16.5141 39.1993 16.6242 39.5661 16.6219 40.0114C16.6113 42.238 16.6301 44.4552 16.6066 46.6759C16.6066 47.1083 16.7074 47.2618 17.1492 47.2208C17.6507 47.1911 18.1533 47.1884 18.6551 47.2126C19.1496 47.2255 19.4426 47.4974 19.4977 47.9872C19.5527 48.4771 19.2516 48.9001 18.757 48.9247C17.7159 48.9786 16.6726 48.9763 15.6316 48.9177C15.0727 48.8802 14.8652 48.4138 14.8688 47.863C14.8828 46.5236 14.8746 45.1947 14.8746 43.8622Z" fill="#484E55"/>
<path d="M26.0637 38.9696C25.4119 38.9689 24.7663 39.0969 24.1642 39.3465C23.5621 39.5961 23.0152 39.9622 22.5551 40.4239C22.095 40.8855 21.7307 41.4336 21.4831 42.0365C21.2355 42.6395 21.1096 43.2854 21.1125 43.9372C21.1079 44.927 21.3977 45.8959 21.945 46.7205C22.4924 47.5452 23.2726 48.1886 24.1865 48.5687C25.1004 48.9489 26.1067 49.0487 27.0775 48.8555C28.0483 48.6624 28.9397 48.1849 29.6385 47.4838C30.3372 46.7828 30.8117 45.8898 31.0017 44.9184C31.1917 43.9469 31.0885 42.941 30.7053 42.0283C30.3221 41.1157 29.6762 40.3376 28.8497 39.793C28.0232 39.2483 27.0534 38.9618 26.0637 38.9696ZM26.0953 47.2068C25.6656 47.2048 25.2405 47.1177 24.8446 46.9504C24.4487 46.7832 24.09 46.5391 23.789 46.2324C23.488 45.9256 23.2508 45.5622 23.0911 45.1633C22.9314 44.7643 22.8524 44.3376 22.8586 43.9079C22.8596 43.4833 22.9451 43.0631 23.1102 42.6719C23.2752 42.2807 23.5165 41.9263 23.82 41.6292C24.1234 41.3322 24.483 41.0986 24.8776 40.942C25.2723 40.7853 25.6942 40.7088 26.1187 40.7169C26.9766 40.7203 27.7982 41.0634 28.4037 41.6711C29.0092 42.2788 29.3493 43.1016 29.3496 43.9595C29.3363 44.8178 28.9889 45.6371 28.3813 46.2434C27.7736 46.8497 26.9536 47.1953 26.0953 47.2068Z" fill="#484E55"/>
<path d="M54.7605 42.6716C54.3832 40.8516 53.434 39.4782 51.5297 39.1559C50.6273 39.0024 49.6816 39.0915 48.7559 39.088C47.9227 39.088 47.6543 39.3563 47.6496 40.1942C47.6437 41.4305 47.6496 42.6657 47.6496 43.902C47.6496 45.1911 47.6344 46.4895 47.6496 47.7821C47.6613 48.5297 47.9848 48.8286 48.7242 48.8368C49.4004 48.8368 50.0766 48.8368 50.7516 48.818C52.5773 48.7536 53.9402 47.6977 54.5332 45.9516C54.9053 44.8992 54.9838 43.7653 54.7605 42.6716ZM53.1199 44.4364C53.0616 44.955 52.9049 45.4578 52.6582 45.9176C52.1391 46.8411 51.3082 47.0965 50.3145 47.079C49.4191 47.0637 49.418 47.0919 49.4168 46.2165C49.4168 45.4633 49.4168 44.7094 49.4168 43.9548H49.4074C49.4074 43.104 49.4426 42.252 49.3934 41.4036C49.3641 40.8926 49.5457 40.8176 50.0039 40.8176C52.3348 40.8423 53.4375 42.0973 53.1199 44.4364Z" fill="#484E55"/>
</svg>
