<svg width="46" height="46" viewBox="0 0 46 46" fill="none" xmlns="http://www.w3.org/2000/svg">
<path fill-rule="evenodd" clip-rule="evenodd" d="M28.2979 3.41262C27.8186 2.41436 27.0669 1.57185 26.1296 0.982153C25.1923 0.392461 24.1074 0.0795898 23 0.0795898C21.8926 0.0795898 20.8078 0.392461 19.8704 0.982153C18.9331 1.57185 18.1815 2.41436 17.7021 3.41262L0.793758 36.673C-1.22916 40.6439 1.32709 45.9168 6.08959 45.9168H39.9083C44.6729 45.9168 47.225 40.646 45.2063 36.673L28.2979 3.41262ZM23 14.6668C23.5525 14.6668 24.0824 14.8863 24.4731 15.277C24.8638 15.6677 25.0833 16.1976 25.0833 16.7501V27.1668C25.0833 27.7193 24.8638 28.2492 24.4731 28.6399C24.0824 29.0306 23.5525 29.2501 23 29.2501C22.4475 29.2501 21.9176 29.0306 21.5269 28.6399C21.1362 28.2492 20.9167 27.7193 20.9167 27.1668V16.7501C20.9167 16.1976 21.1362 15.6677 21.5269 15.277C21.9176 14.8863 22.4475 14.6668 23 14.6668ZM23 32.3751C23.5525 32.3751 24.0824 32.5946 24.4731 32.9853C24.8638 33.376 25.0833 33.9059 25.0833 34.4585V35.5001C25.0833 36.0527 24.8638 36.5826 24.4731 36.9733C24.0824 37.364 23.5525 37.5835 23 37.5835C22.4475 37.5835 21.9176 37.364 21.5269 36.9733C21.1362 36.5826 20.9167 36.0527 20.9167 35.5001V34.4585C20.9167 33.9059 21.1362 33.376 21.5269 32.9853C21.9176 32.5946 22.4475 32.3751 23 32.3751Z" fill="#FFF500"/>
</svg>
