<svg width="22" height="22" viewBox="0 0 22 22" fill="none" xmlns="http://www.w3.org/2000/svg">
<path fill-rule="evenodd" clip-rule="evenodd" d="M13.3311 2.38157C13.1202 1.94234 12.7894 1.57163 12.377 1.31217C11.9646 1.0527 11.4873 0.915039 11 0.915039C10.5127 0.915039 10.0354 1.0527 9.62298 1.31217C9.21056 1.57163 8.87983 1.94234 8.66891 2.38157L1.22925 17.0162C0.339165 18.7633 1.46392 21.0834 3.55942 21.0834H18.4397C20.5361 21.0834 21.659 18.7642 20.7707 17.0162L13.3311 2.38157ZM11 7.33341C11.2431 7.33341 11.4763 7.42998 11.6482 7.60189C11.8201 7.7738 11.9167 8.00696 11.9167 8.25007V12.8334C11.9167 13.0765 11.8201 13.3097 11.6482 13.4816C11.4763 13.6535 11.2431 13.7501 11 13.7501C10.7569 13.7501 10.5237 13.6535 10.3518 13.4816C10.1799 13.3097 10.0833 13.0765 10.0833 12.8334V8.25007C10.0833 8.00696 10.1799 7.7738 10.3518 7.60189C10.5237 7.42998 10.7569 7.33341 11 7.33341ZM11 15.1251C11.2431 15.1251 11.4763 15.2216 11.6482 15.3936C11.8201 15.5655 11.9167 15.7986 11.9167 16.0417V16.5001C11.9167 16.7432 11.8201 16.9763 11.6482 17.1483C11.4763 17.3202 11.2431 17.4167 11 17.4167C10.7569 17.4167 10.5237 17.3202 10.3518 17.1483C10.1799 16.9763 10.0833 16.7432 10.0833 16.5001V16.0417C10.0833 15.7986 10.1799 15.5655 10.3518 15.3936C10.5237 15.2216 10.7569 15.1251 11 15.1251Z" fill="#FFF500"/>
</svg>
