<svg width="60" height="60" viewBox="0 0 60 60" fill="none" xmlns="http://www.w3.org/2000/svg">
<path d="M51.6715 59.9882H8.3285C5.82421 59.6695 4.36991 58.1589 3.73827 55.8175C3.41132 54.607 3.58593 53.3414 3.64335 52.1015C3.66561 51.607 4.01249 51.3984 4.69804 51.2964C5.40116 51.4886 5.65077 51.7652 5.68827 52.4753C5.72343 53.1187 5.69647 53.7644 5.70116 54.4078C5.71405 56.4328 7.06288 57.8765 9.08671 58.0312C9.39843 58.0546 9.71132 58.0441 10.0242 58.0441C22.5937 58.0441 35.1633 58.0441 47.7328 58.0441C48.7652 58.0699 49.8 58.0851 50.8324 58.0441C52.8492 57.955 54.3035 56.4363 54.3058 54.4382C54.3113 48.1984 54.3113 41.9574 54.3058 35.7152C54.3102 35.5787 54.3062 35.4422 54.2941 35.3062C54.2695 35.1011 54.1652 35.0331 53.9742 35.1234C53.7986 35.2086 53.6294 35.3066 53.468 35.4164C52.2785 36.1992 51.0598 36.9398 49.8551 37.6921C47.6285 39.0128 45.4558 40.4402 43.2539 41.8113C39.2144 44.3273 35.168 46.8351 31.1601 49.398C30.3586 49.9101 29.6918 49.8749 28.8973 49.3781C23.2723 45.8624 17.6422 42.3574 12.007 38.8628C10.1039 37.6816 8.20311 36.491 6.2953 35.3097C6.13241 35.2078 5.9871 35.0695 5.74686 35.032C5.61093 35.2101 5.67304 35.4304 5.67304 35.6285C5.66835 39.1441 5.66835 42.6558 5.67304 46.1636C5.67304 46.3781 5.68007 46.5925 5.666 46.807C5.61444 47.5605 5.24765 47.8992 4.4578 47.9249C3.83671 47.7574 3.58593 47.339 3.5871 46.7097C3.5871 42.6515 3.55897 38.591 3.60585 34.5328C3.62108 33.1734 4.14608 31.9382 4.96054 30.8519C6.2578 29.1187 7.65936 27.4664 9.02343 25.7812C9.38867 25.3483 9.58144 24.7958 9.56483 24.2296C9.55155 17.5359 9.55155 10.8421 9.56483 4.14839C9.56483 2.48667 10.2187 1.16245 11.7293 0.333935C12.0996 0.131201 12.5074 0.110107 12.9012 0.00463867H47.1023C49.0945 0.393701 50.3238 1.88901 50.325 3.95854C50.3297 7.89292 50.3297 11.8273 50.325 15.7617C50.325 16.6687 50.1 16.9511 49.3008 17.1234C48.4934 16.9628 48.225 16.6605 48.2156 15.8015C48.1945 13.9523 48.2156 12.1019 48.2086 10.2527C48.2086 9.21089 48.2086 9.21323 47.1926 9.20854C46.2973 9.20854 45.4019 9.22495 44.5066 9.19917C44.2723 9.22261 44.0379 9.2144 43.8035 9.2144H12.7734C11.6812 9.2144 11.6801 9.2144 11.6801 10.3042C11.6801 18.5601 11.6906 26.8148 11.6625 35.0695C11.6625 35.8769 11.9601 36.3105 12.6 36.764C13.8387 37.6394 15.0984 37.9476 16.6488 37.9359C25.2527 37.8456 33.859 37.8843 42.4652 37.8949C43.316 37.9546 44.1785 37.8058 45.0234 38.0273C45.2508 38.0871 45.4359 37.9488 45.6199 37.8386C46.2363 37.466 46.8269 37.0464 47.4598 36.7054C48.0293 36.3972 48.225 35.9777 48.2215 35.3367C48.1992 31.0312 48.2098 26.7269 48.2098 22.4214C48.2098 22.1871 48.2039 21.9527 48.2156 21.7183C48.2566 20.9472 48.5062 20.6636 49.2785 20.4925C50.0613 20.6414 50.2922 20.8886 50.3098 21.6527C50.3301 22.4917 50.3301 23.3308 50.3098 24.1699C50.289 24.6794 50.4624 25.1778 50.7949 25.5644C52.1883 27.273 53.6004 28.9628 54.9387 30.7206C55.9162 31.9812 56.4364 33.5365 56.4141 35.1316C56.3976 41.5925 56.3957 48.0531 56.4082 54.5132C56.4082 56.7925 55.2773 58.3804 53.3976 59.5242C52.8691 59.8511 52.2656 59.8828 51.6715 59.9882Z" fill="#484E55"/>
<path d="M4.58087 51.4243V47.8125C5.35314 47.6051 5.50665 47.4176 5.50665 46.6407C5.50665 42.6809 5.50665 38.7211 5.50665 34.7239C5.81368 34.7485 6.01056 34.9465 6.22618 35.0813C13.8965 39.8469 21.5613 44.6168 29.2207 49.3911C29.8184 49.7637 30.2918 49.7497 30.8777 49.3817C36.9848 45.5379 43.0992 41.7047 49.2211 37.8821C49.3676 37.7895 49.5246 37.7122 49.6758 37.629C49.8996 37.8469 49.8586 38.1329 49.8586 38.3989C49.8633 43.7973 49.8633 49.1954 49.8586 54.593C49.8586 55.7508 49.4121 56.7528 48.6867 57.6399C48.4711 57.9203 48.1666 58.1191 47.8231 58.2036C47.6484 58.2106 47.4715 58.2247 47.2981 58.2247C34.6692 58.2247 22.0399 58.2247 9.41017 58.2247C7.42736 58.2247 5.87697 57.0375 5.56642 55.1625C5.42697 54.3247 5.51486 53.4493 5.50431 52.5915C5.49845 51.818 5.35197 51.6282 4.58087 51.4243Z" fill="#83CFD6"/>
<path d="M42.5391 38.0614C42.3047 38.0684 42.0703 38.0813 41.8359 38.0813C33.1711 38.0813 24.507 38.0813 15.8438 38.0813C15.552 38.0813 15.2484 38.0403 15.0024 38.2442C14.8055 38.4094 14.6731 38.2524 14.5336 38.168C13.6242 37.6067 12.7231 37.0289 11.8078 36.4758C11.7073 36.4237 11.6248 36.3425 11.571 36.2428C11.5173 36.1431 11.4949 36.0295 11.5067 35.9168C11.5121 27.0973 11.5121 18.277 11.5067 9.45588C11.5067 9.06331 11.6531 9.02229 11.9754 9.02346C14.5324 9.03518 17.0883 9.03049 19.6442 9.03049H43.8809C44.0953 9.03049 44.3098 9.04221 44.5242 9.04924C44.6133 9.12647 44.6687 9.23533 44.6789 9.35276C44.7404 10.2987 44.7381 11.2477 44.6719 12.1934C44.6594 12.2901 44.6187 12.3811 44.5547 12.4547C44.2031 12.6891 43.8 12.6141 43.4168 12.6153C34.4598 12.6153 25.5035 12.6153 16.5481 12.6153C14.9531 12.6153 14.8465 12.7196 14.8465 14.2934V22.7813C14.8465 23.0157 14.8383 23.25 14.8606 23.4844C14.9238 24.1407 15.1629 24.368 15.832 24.409C16.1039 24.4254 16.3781 24.4172 16.6524 24.4172C25.5688 24.4172 34.4859 24.4172 43.4039 24.4172C43.7883 24.4172 44.1891 24.3422 44.5465 24.5684C44.6469 24.6877 44.7013 24.839 44.7 24.995C44.7293 25.9559 44.7352 26.9168 44.7 27.8778C44.6971 28.0137 44.6516 28.1453 44.5699 28.2539C44.2184 28.5035 43.8188 28.4227 43.4355 28.4227C34.502 28.4274 25.5688 28.4274 16.6359 28.4227C16.4016 28.4227 16.1672 28.4227 15.9328 28.4227C15.2543 28.4414 14.8969 28.6887 14.9086 29.1258C14.9203 29.5629 15.2602 29.775 15.9047 29.7961C16.1391 29.8032 16.3734 29.7961 16.6078 29.7961C25.5414 29.7961 34.4746 29.7961 43.4074 29.7961C43.7918 29.7961 44.1926 29.7223 44.55 29.9485C44.6721 30.1002 44.7297 30.2937 44.7105 30.4875C44.6637 31.3805 44.8793 32.2864 44.5688 33.1653C44.2172 33.4137 43.8176 33.3328 43.4344 33.334C34.4414 33.334 25.4484 33.334 16.4555 33.334C16.1631 33.3258 15.8704 33.334 15.5789 33.3586C15.1688 33.4055 14.9168 33.6434 14.9203 34.043C14.9203 34.4192 15.177 34.636 15.5578 34.684C15.8492 34.7102 16.1419 34.7188 16.4344 34.7098H43.3488C43.7004 34.7098 44.052 34.6758 44.3941 34.7801C44.8887 35.3086 44.8148 36.6047 44.2395 37.0266C43.7152 37.437 43.1445 37.7843 42.5391 38.0614Z" fill="#F7F2F1"/>
<path d="M44.5313 7.25273C44.3367 7.25976 44.1422 7.27148 43.9453 7.27148C33.3477 7.27148 22.7508 7.27656 12.1547 7.28672C11.611 7.28672 11.4703 7.14023 11.4973 6.61523C11.5406 5.73984 11.4973 4.85742 11.5125 3.98203C11.5395 2.71641 12.45 1.77187 13.6793 1.7707C23.6317 1.76523 33.5844 1.76523 43.5375 1.7707C43.5956 1.77347 43.6536 1.77973 43.7109 1.78945C44.5313 2.3168 44.6918 3.12539 44.6707 4.01602C44.5606 4.39687 44.6262 4.77539 44.686 5.15508C44.7223 5.65781 44.7106 6.15937 44.7035 6.66211C44.6988 6.8707 44.6942 7.0875 44.5313 7.25273Z" fill="#83CFD6"/>
<path d="M47.8266 58.2094C49.0559 57.2251 49.6875 55.963 49.6875 54.3751C49.6742 48.7946 49.6715 43.2149 49.6793 37.636L54.4582 34.5891C54.4734 34.9102 54.4934 35.1329 54.4934 35.3555C54.4934 41.6743 54.4641 47.9919 54.5133 54.3094C54.5297 56.3743 52.9172 58.3184 50.5184 58.2376C49.6207 58.2036 48.7231 58.2165 47.8266 58.2094Z" fill="#459096"/>
<path d="M44.5242 28.2235V24.6294C45.1406 24.1407 45.1817 23.4751 45.1746 22.7544C45.1512 19.8934 45.1512 17.0333 45.1746 14.1739C45.1746 13.4825 45.1149 12.8614 44.5231 12.4161V9.04931C45.6703 9.04228 46.8176 9.04931 47.9649 9.02118C48.3328 9.01064 48.4125 9.12196 48.4102 9.4747C48.3938 11.5759 48.4008 13.677 48.402 15.7782C48.402 16.6173 48.5356 16.7884 49.3289 17.0075V20.6157C48.5356 20.8313 48.402 21.0048 48.402 21.8485C48.402 26.4915 48.3961 31.1345 48.4113 35.7774C48.4113 36.1794 48.2942 36.4056 47.9426 36.6071C47.1223 37.0829 46.3137 37.5974 45.5156 38.1165C45.2672 38.277 45.0551 38.3837 44.7926 38.1692C44.6438 38.052 44.4586 38.0849 44.284 38.0825C43.6981 38.0743 43.1121 38.0684 42.5262 38.0614C42.8942 37.5821 43.4637 37.3841 43.9488 37.077C44.3742 36.8087 44.5899 36.5028 44.5254 35.9872C44.5012 35.6381 44.498 35.2878 44.516 34.9384C45.3738 34.1415 45.375 33.9411 44.516 33.1431V30.0177C45.382 29.222 45.3832 29.0204 44.5242 28.2235Z" fill="#EAE0DB"/>
<path d="M34.6875 42.982C30.6492 42.9891 26.6109 42.9965 22.5727 43.0043C22.4171 43.0098 22.2633 42.969 22.1309 42.8871C20.5535 41.9012 18.9742 40.9176 17.393 39.9363C17.4586 39.7863 17.5711 39.8391 17.6543 39.8391C24.7957 39.8391 31.9371 39.8391 39.0785 39.8391C39.1758 39.8391 39.2719 39.8508 39.3692 39.8578C39.4113 40.0793 39.2426 40.1742 39.1008 40.2633C37.6336 41.1785 36.2039 42.1524 34.6875 42.982Z" fill="#F7F2F1"/>
<path d="M44.5312 7.25279L44.5418 5.01568C44.7316 4.98053 44.8664 5.11529 45.0258 5.17389C45.1682 5.23779 45.3286 5.24931 45.4787 5.20643C45.6288 5.16355 45.7589 5.06901 45.8461 4.93951C46.0359 4.68873 46.0863 4.40514 45.8894 4.13678C45.801 3.99494 45.6645 3.88966 45.5048 3.84017C45.3452 3.79068 45.1731 3.80029 45.0199 3.86725C44.8617 3.92467 44.7258 4.0606 44.5359 4.01959C44.5898 3.1524 44.2559 2.43053 43.7086 1.79303C44.6027 1.786 45.4969 1.7567 46.3898 1.77896C46.9194 1.79354 47.423 2.01095 47.7969 2.38628C48.1707 2.76161 48.386 3.26619 48.3984 3.79576C48.4207 4.82584 48.3984 5.85592 48.4137 6.886C48.4137 7.18834 48.3398 7.28678 48.0281 7.27975C46.8586 7.25631 45.6926 7.26568 44.5312 7.25279Z" fill="#459096"/>
<path d="M50.1973 35.1762V28.1039C50.277 28.0512 50.3344 28.1039 50.3848 28.1637C51.4395 29.4668 52.5023 30.7559 53.5254 32.0801C54.0539 32.7645 54.0199 32.795 53.3027 33.2426C52.2879 33.8766 51.2719 34.5082 50.1973 35.1762Z" fill="#459096"/>
<path d="M9.73361 28.0183V35.1667C8.54181 34.4285 7.38986 33.7171 6.24611 33.0093C5.959 32.8324 6.12892 32.6472 6.22853 32.4691C6.66095 31.7015 7.27267 31.0628 7.81408 30.3796C8.41056 29.6261 9.02345 28.8855 9.73361 28.0183Z" fill="#459096"/>
<path d="M34.6875 42.9819C35.4867 42.2284 36.5039 41.8007 37.3934 41.1819C38.0437 40.7284 38.782 40.4073 39.3691 39.8589H42.6832C42.4313 40.0323 42.2578 40.1612 42.075 40.2761C40.7426 41.1128 39.4043 41.9401 38.0766 42.7839C37.8527 42.9361 37.5866 43.014 37.316 43.0065C36.4383 42.9866 35.5617 42.989 34.6875 42.9819Z" fill="#EAE0DB"/>
<path d="M31.5234 44.7786H34.8738L33.1793 45.8415C32.2418 46.4274 31.2973 47.0133 30.3668 47.6098C30.15 47.7481 29.9871 47.8043 29.7527 47.6344C29.332 47.3274 28.8844 47.0567 28.4473 46.7707C28.7543 46.2926 29.2863 46.1145 29.7363 45.8262C30.3094 45.4512 30.8672 45.034 31.5234 44.7786Z" fill="#EAE0DB"/>
<path d="M31.5234 44.7786C30.5695 45.5543 29.4773 46.1157 28.4461 46.7708L25.1437 44.7786H31.5234Z" fill="#F7F2F1"/>
<path d="M44.5242 28.2234C45.0258 28.3277 45.2929 28.6406 45.2824 29.1492C45.2719 29.632 44.9965 29.9203 44.5242 30.0175C44.3097 30.0175 44.0953 30 43.8808 30H15.8871C15.7118 30.0135 15.5356 30.01 15.3609 29.9894C14.8992 29.8945 14.6578 29.5921 14.6578 29.121C14.6578 28.65 14.8922 28.3476 15.3609 28.2539C15.5356 28.2333 15.7118 28.2298 15.8871 28.2433H43.8808C44.0953 28.2421 44.3097 28.2292 44.5242 28.2234Z" fill="#484E55"/>
<path d="M44.5242 33.1431C45.0258 33.2474 45.2929 33.5614 45.2824 34.0688C45.2719 34.5528 44.9965 34.8399 44.5242 34.9384C44.3097 34.9313 44.0953 34.9196 43.8808 34.9196H15.8871C15.7118 34.9332 15.5356 34.9296 15.3609 34.9091C14.8992 34.8142 14.6578 34.513 14.6578 34.0419C14.6578 33.5708 14.8922 33.2685 15.3609 33.1735C15.5356 33.153 15.7118 33.1494 15.8871 33.163H43.8808C44.0953 33.1642 44.3097 33.1489 44.5242 33.1431Z" fill="#484E55"/>
<path d="M20.6918 5.39878H14.9613C14.2008 5.39878 13.8328 5.11753 13.8246 4.53628C13.8164 3.95503 14.1902 3.64331 14.9297 3.64331H26.5078C27.2203 3.64331 27.6492 3.98433 27.6387 4.53394C27.6281 5.08354 27.2086 5.39878 26.4808 5.39878H20.6918Z" fill="#484E55"/>
<path d="M44.5313 4.01944C44.8582 3.71475 45.2109 3.49561 45.6715 3.72882C45.8335 3.79772 45.9693 3.91643 46.0592 4.06771C46.1492 4.219 46.1887 4.39501 46.1719 4.57022C46.166 4.73554 46.1112 4.8954 46.0144 5.02954C45.9176 5.16368 45.7832 5.26607 45.6281 5.32374C45.177 5.52765 44.8524 5.28976 44.5395 5.01202C44.4691 4.85625 44.432 4.68751 44.4306 4.5166C44.4292 4.34568 44.4635 4.17635 44.5313 4.01944Z" fill="#484E55"/>
<path fill-rule="evenodd" clip-rule="evenodd" d="M45.3715 13.4624C45.3727 12.8636 45.1102 12.5155 44.5242 12.4077L44.5239 12.4077C44.3095 12.4148 44.0952 12.4218 43.882 12.4276H15.9551C14.9168 12.4276 14.666 12.6819 14.666 13.7472V23.2218C14.666 24.3667 14.8945 24.6011 16.0172 24.6011H43.882C43.9885 24.6011 44.0953 24.6057 44.2023 24.6104C44.3095 24.6151 44.4169 24.6198 44.5242 24.6198C45.1125 24.5155 45.3715 24.1687 45.3715 23.5651C45.3621 20.1979 45.3621 16.8304 45.3715 13.4624ZM43.0594 14.1705C38.727 14.1799 34.398 14.1799 30.0621 14.1799C29.0004 14.1799 27.9387 14.1806 26.8772 14.1813C23.587 14.1834 20.2983 14.1856 17.0156 14.167C16.5598 14.1658 16.4297 14.2701 16.4297 14.7389C16.452 17.2525 16.4473 19.7744 16.4297 22.2916C16.4273 22.7006 16.4895 22.8576 16.9582 22.8576C25.6816 22.8459 34.4051 22.8459 43.1285 22.8576C43.5117 22.8576 43.6113 22.7568 43.6113 22.3748C43.5902 19.8178 43.5856 17.2619 43.6113 14.7049C43.6148 14.2525 43.4836 14.1705 43.0594 14.1705Z" fill="#484E55"/>
<path d="M30.0621 14.1799C34.398 14.1799 38.727 14.1799 43.0594 14.1705C43.4836 14.1705 43.6148 14.2525 43.6113 14.7049C43.5856 17.2619 43.5902 19.8178 43.6113 22.3748C43.6113 22.7568 43.5117 22.8576 43.1285 22.8576C34.4051 22.8459 25.6816 22.8459 16.9582 22.8576C16.4895 22.8576 16.4273 22.7006 16.4297 22.2916C16.4473 19.7744 16.452 17.2525 16.4297 14.7389C16.4297 14.2701 16.5598 14.1658 17.0156 14.167C21.3574 14.1916 25.7098 14.1799 30.0621 14.1799Z" fill="#5BB7BE"/>
</svg>
