<svg width="20" height="20" viewBox="0 0 20 20" fill="none" xmlns="http://www.w3.org/2000/svg">
<path d="M10 0.375C12.5527 0.375 15.0009 1.38906 16.8059 3.1941C18.6109 4.99913 19.625 7.44729 19.625 10C19.625 12.5527 18.6109 15.0009 16.8059 16.8059C15.0009 18.6109 12.5527 19.625 10 19.625C7.44729 19.625 4.99913 18.6109 3.1941 16.8059C1.38906 15.0009 0.375 12.5527 0.375 10C0.375 7.44729 1.38906 4.99913 3.1941 3.1941C4.99913 1.38906 7.44729 0.375 10 0.375ZM10 8.83263L7.76425 6.59688C7.60945 6.44207 7.39949 6.3551 7.18056 6.3551C6.96164 6.3551 6.75168 6.44207 6.59688 6.59688C6.44207 6.75168 6.3551 6.96164 6.3551 7.18056C6.3551 7.39949 6.44207 7.60945 6.59688 7.76425L8.83263 10L6.59688 12.2358C6.52022 12.3124 6.45942 12.4034 6.41794 12.5035C6.37645 12.6037 6.3551 12.711 6.3551 12.8194C6.3551 12.9278 6.37645 13.0352 6.41794 13.1353C6.45942 13.2355 6.52022 13.3265 6.59688 13.4031C6.67353 13.4798 6.76452 13.5406 6.86467 13.5821C6.96482 13.6235 7.07216 13.6449 7.18056 13.6449C7.28896 13.6449 7.3963 13.6235 7.49645 13.5821C7.5966 13.5406 7.6876 13.4798 7.76425 13.4031L10 11.1674L12.2358 13.4031C12.3124 13.4798 12.4034 13.5406 12.5035 13.5821C12.6037 13.6235 12.711 13.6449 12.8194 13.6449C12.9278 13.6449 13.0352 13.6235 13.1353 13.5821C13.2355 13.5406 13.3265 13.4798 13.4031 13.4031C13.4798 13.3265 13.5406 13.2355 13.5821 13.1353C13.6235 13.0352 13.6449 12.9278 13.6449 12.8194C13.6449 12.711 13.6235 12.6037 13.5821 12.5035C13.5406 12.4034 13.4798 12.3124 13.4031 12.2358L11.1674 10L13.4031 7.76425C13.4798 7.6876 13.5406 7.5966 13.5821 7.49645C13.6235 7.3963 13.6449 7.28896 13.6449 7.18056C13.6449 7.07216 13.6235 6.96482 13.5821 6.86467C13.5406 6.76452 13.4798 6.67353 13.4031 6.59688C13.3265 6.52022 13.2355 6.45942 13.1353 6.41794C13.0352 6.37645 12.9278 6.3551 12.8194 6.3551C12.711 6.3551 12.6037 6.37645 12.5035 6.41794C12.4034 6.45942 12.3124 6.52022 12.2358 6.59688L10 8.83263Z" fill="#EE002D"/>
</svg>
