<svg width="60" height="60" viewBox="0 0 60 60" fill="none" xmlns="http://www.w3.org/2000/svg">
<path d="M27.3914 51.3175C19.7977 51.3175 12.2035 51.3175 4.60898 51.3175C2.90742 51.3175 1.63828 50.3519 1.2457 48.7957C1.18309 48.4897 1.15869 48.1772 1.17304 47.8652C1.17304 39.2769 1.17304 30.6882 1.17304 22.0992C1.17304 19.9898 2.54062 18.6398 4.66054 18.6398C15.1059 18.6398 25.55 18.6441 35.993 18.6527C36.5191 18.6527 36.7113 18.5355 36.7945 17.9964C37.623 12.5871 42.3937 8.61558 47.9379 8.68824C53.3402 8.75972 58.0266 12.8777 58.7051 18.232C59.2617 22.6183 57.6844 26.141 54.1758 28.8011C54.034 28.8936 53.9196 29.0224 53.8446 29.1741C53.7696 29.3258 53.7366 29.4949 53.7492 29.6636C53.7594 35.7339 53.7594 41.8046 53.7492 47.8757C53.7492 49.6453 52.7039 50.9449 51.0422 51.2625C50.7142 51.312 50.3822 51.3304 50.0508 51.3175C42.5 51.3183 34.9469 51.3183 27.3914 51.3175Z" fill="#484E55"/>
<path d="M5.89688 20.9507H6.57774C16.4145 20.9507 26.2508 20.9468 36.0867 20.939C36.5555 20.939 36.723 21.0655 36.7898 21.5249C37.1098 23.7515 38.0789 25.6804 39.6082 27.3198C39.9 27.6315 39.8801 27.7569 39.5426 28.0054C36.1629 30.4897 32.8008 32.9964 29.427 35.4866C28.1379 36.437 26.7926 36.4487 25.534 35.5183C19.1184 30.7753 12.7063 26.0288 6.29766 21.2788C6.21094 21.2108 6.12188 21.1358 5.89688 20.9507Z" fill="#EAE0DB"/>
<path d="M7.96875 46.1495C9.55703 44.5417 11.1445 42.9335 12.7312 41.3249C14.9578 39.0808 17.1902 36.8495 19.3922 34.5855C19.7496 34.2187 19.957 34.2339 20.3297 34.528C21.5801 35.4902 22.8598 36.4159 24.1301 37.3523C26.2266 38.898 28.6266 38.9109 30.7406 37.3734C32.0484 36.4226 33.3469 35.4589 34.6359 34.4823C34.9535 34.2398 35.1328 34.1929 35.4434 34.5187C36.7734 35.9144 38.1387 37.2761 39.4922 38.6507C39.6422 38.9812 39.3527 39.1089 39.1828 39.2648C37.6078 40.6949 35.8659 41.9296 33.9949 42.9421C30.654 44.7824 26.9726 45.9213 23.1762 46.289C22.3652 46.3675 21.5496 46.453 20.7281 46.4507C16.7508 46.4448 12.7734 46.4507 8.79492 46.4378C8.51133 46.4366 8.11055 46.6183 7.96875 46.1495Z" fill="#F7F2F1"/>
<path d="M7.96875 46.1497C8.13281 46.356 8.36485 46.2786 8.56875 46.2786C12.7793 46.2786 16.991 46.3583 21.1992 46.2575C24.6777 46.1789 28.1088 45.4338 31.3066 44.0626C33.9169 42.9434 36.354 41.4573 38.5442 39.6493C38.8957 39.3622 39.266 39.0704 39.4957 38.6567C40.4777 39.6317 41.4656 40.6021 42.4406 41.5864C44.7117 43.87 46.9797 46.1567 49.2445 48.4466C49.3899 48.5942 49.5281 48.7489 49.732 48.9669H5.19141C6.14531 47.9931 7.05703 47.072 7.96875 46.1497Z" fill="#ABDCE0"/>
<path d="M3.51562 47.2851V22.0991C4.14609 22.5597 4.72148 22.9745 5.29219 23.3976C9.36719 26.4116 13.4414 29.4269 17.5149 32.4433C17.7656 32.6296 18.0246 32.7339 17.6473 33.1112C13.0285 37.7347 8.41914 42.3683 3.81914 47.012C3.75 47.0788 3.67734 47.1374 3.51562 47.2851Z" fill="#F7F2F1"/>
<path d="M43.234 27.3046C40.8305 25.8855 39.3973 23.7679 39.041 21.0316C38.393 16.0652 41.5664 11.9015 46.5106 11.0706C49.909 10.5011 53.8688 12.4546 55.3231 15.4206C55.9465 17.9531 55.5445 20.3495 54.2461 22.5761C52.5328 25.5163 49.9535 27.1675 46.568 27.5929C45.4492 27.7523 44.3088 27.6536 43.234 27.3046Z" fill="white"/>
<path d="M45.5777 30.7031C47.5488 31.0089 49.4941 30.9375 51.4195 30.2449V47.2101C51.3258 47.264 51.2742 47.1996 51.2215 47.1457C47.8676 43.7707 44.5145 40.3949 41.1621 37.0183C41.1388 36.9877 41.1188 36.9547 41.1023 36.9199C42.7793 35.2195 44.066 33.239 45.2402 31.1777C45.3241 31.0009 45.4383 30.8403 45.5777 30.7031Z" fill="#ABDCE0"/>
<path d="M45.5777 30.7031C45.0668 31.9769 44.2664 33.0832 43.5105 34.2105C42.9443 35.0474 42.3151 35.8399 41.6285 36.5812C41.4844 36.7359 41.3484 36.9152 41.1023 36.9164C39.8062 35.6265 38.5086 34.3367 37.2094 33.0468C37.009 32.8488 36.9937 32.7421 37.2422 32.5605C38.6906 31.505 40.1305 30.4371 41.5617 29.3566C41.8078 29.1691 41.9695 29.2499 42.1816 29.3765C43.2422 30.0093 44.3871 30.4113 45.5777 30.7031Z" fill="#F7F2F1"/>
<path d="M43.234 27.3046C43.6851 27.2601 44.1234 27.3913 44.5641 27.4382C47.1293 27.7183 49.4309 27.028 51.4617 25.5151C53.5898 23.9296 54.8543 21.7769 55.316 19.1437C55.5351 17.8956 55.3359 16.664 55.323 15.4253C56.9086 18.178 56.9449 20.9976 55.5387 23.8007C53.3203 28.2175 47.8394 29.8827 43.5152 27.5073C43.4177 27.4451 43.3238 27.3774 43.234 27.3046Z" fill="#EFEEEE"/>
<path d="M50.8875 19.3958C52.3172 19.8364 53.0273 20.7564 52.9336 21.9634C52.827 23.3263 51.9094 24.2919 50.5184 24.4864C49.4458 24.6399 48.3535 24.4087 47.4352 23.8337C47.1504 23.6626 47.0191 23.5009 47.2395 23.1997C47.2608 23.1675 47.28 23.1338 47.2969 23.0989C47.7516 22.1978 47.748 22.2048 48.6387 22.6149C49.193 22.8692 49.7625 23.0649 50.3871 22.8634C50.816 22.7239 51.0902 22.4626 51.1207 21.9892C51.1512 21.5157 50.9543 21.1618 50.5078 20.9673C50.0032 20.742 49.4314 20.7193 48.9105 20.904C48.6 21.0106 48.5191 20.9474 48.4981 20.611C48.457 19.9771 48.5719 19.4392 49.0582 18.981C49.3957 18.6634 49.6688 18.2778 50.066 17.8091C49.3125 17.8091 48.6598 17.7892 48.0211 17.8161C47.6344 17.8325 47.4645 17.747 47.4785 17.3122C47.5195 15.995 47.3367 16.2259 48.5473 16.213C49.7191 16.1989 50.891 16.22 52.0629 16.2036C52.4145 16.2036 52.5246 16.3079 52.5434 16.6724C52.5727 17.2524 52.4543 17.7271 52.0113 18.1384C51.6117 18.5028 51.2836 18.9435 50.8875 19.3958Z" fill="#459096"/>
<path d="M45.5859 20.3262C45.5859 21.5531 45.5754 22.7871 45.593 24.0082C45.5988 24.3598 45.4992 24.477 45.1359 24.477C43.8281 24.4922 43.8281 24.5109 43.8281 23.2277C43.8281 21.5871 43.8141 19.9535 43.8375 18.3176C43.8434 17.9027 43.7203 17.7938 43.3137 17.7996C42.2449 17.8125 42.259 17.7926 42.259 16.7051C42.259 16.3207 42.3762 16.1953 42.7605 16.207C43.5586 16.2305 44.3578 16.227 45.157 16.207C45.4887 16.1988 45.593 16.3113 45.5883 16.6418C45.5707 17.8699 45.5859 19.1016 45.5859 20.3262Z" fill="#459096"/>
</svg>
