<svg width="60" height="60" viewBox="0 0 60 60" fill="none" xmlns="http://www.w3.org/2000/svg">
<g clip-path="url(#clip0_1342_6223)">
<path d="M29.966 38.4374C29.2828 38.4374 28.5984 38.4456 27.9152 38.4374C27.0539 38.4257 26.3836 37.9405 26.1328 37.105C25.9148 36.3784 25.739 35.6401 25.5633 34.903C25.5487 34.7985 25.5123 34.6982 25.4566 34.6086C25.4009 34.519 25.3271 34.4421 25.2398 34.3827C24.6152 33.9749 24.3445 33.3796 24.3762 32.6378C24.3844 32.4433 24.3644 32.2464 24.3762 32.0519C24.423 31.4272 24.4383 30.9315 23.5898 30.7323C22.8973 30.5683 22.514 29.9038 22.5058 29.1515C22.4948 28.0903 22.1422 27.061 21.5004 26.2159C20.8875 25.3839 20.2547 24.5647 19.5949 23.7702C14.1258 17.1761 17.0578 6.05615 26.3918 3.3292C33.9433 1.11787 41.8488 6.19092 42.9785 13.9452C43.534 17.7597 42.6105 21.1722 40.1144 24.1405C39.4629 24.9163 38.8031 25.6886 38.2652 26.5534C37.7879 27.2956 37.5232 28.1545 37.5 29.0366C37.4777 30.0022 36.9258 30.7089 35.9672 30.8999C35.6402 30.9655 35.6156 31.0968 35.625 31.3511C35.6367 31.7214 35.6097 32.094 35.6308 32.4632C35.6789 33.2835 35.434 33.9655 34.7109 34.4167C34.5398 34.5233 34.4941 34.6733 34.4531 34.8479C34.2949 35.5101 34.1355 36.1722 33.9656 36.8308C33.6867 37.9171 33.0222 38.4292 31.9031 38.4327C31.2539 38.4374 30.6094 38.4374 29.966 38.4374Z" fill="#484E55"/>
<path d="M6.55546 28.7531C4.92186 26.5746 5.71053 24.4453 6.91405 23.3918C7.60114 22.8041 8.47554 22.4812 9.37967 22.4812C10.2838 22.4812 11.1582 22.8041 11.8453 23.3918C13.4027 24.7594 13.5469 26.6965 12.2133 28.7543C12.7245 29.0158 13.2049 29.3338 13.6453 29.7024C15.0961 30.9809 15.8719 32.5852 15.9351 34.5176C15.9598 35.243 15.5953 35.6133 14.8805 35.6145C11.2086 35.6199 7.53905 35.6199 3.87186 35.6145C3.15819 35.6145 2.79491 35.2442 2.82538 34.5129C2.91913 32.2324 3.93046 30.4547 5.82186 29.1785C6.05038 29.032 6.29296 28.9067 6.55546 28.7531Z" fill="#484E55"/>
<path d="M33.75 44.0625C33.75 44.8045 33.5299 45.5298 33.1175 46.1466C32.7051 46.7635 32.1191 47.2441 31.4334 47.5277C30.7478 47.8114 29.9934 47.8852 29.2658 47.7399C28.5382 47.5947 27.87 47.2368 27.3459 46.7117C26.8217 46.1865 26.4651 45.5177 26.3212 44.7898C26.1773 44.0619 26.2526 43.3077 26.5375 42.6226C26.8224 41.9375 27.3041 41.3523 27.9217 40.9411C28.5393 40.5299 29.265 40.3111 30.007 40.3125C30.4995 40.3111 30.9875 40.4072 31.4427 40.5953C31.8979 40.7833 32.3114 41.0596 32.6593 41.4082C33.0072 41.7568 33.2827 42.1708 33.4699 42.6263C33.6571 43.0819 33.7523 43.57 33.75 44.0625Z" fill="#484E55"/>
<path d="M10.282 15.0059C9.72644 14.9987 9.18542 14.8271 8.72725 14.5127C8.26908 14.1983 7.91429 13.7553 7.70766 13.2395C7.50103 12.7237 7.45181 12.1583 7.56621 11.6145C7.68062 11.0708 7.95352 10.5731 8.35049 10.1843C8.74745 9.79551 9.25068 9.53301 9.79668 9.42993C10.3427 9.32684 10.907 9.3878 11.4184 9.60511C11.9298 9.82241 12.3653 10.1863 12.6701 10.6509C12.9749 11.1155 13.1352 11.66 13.1309 12.2156C13.1292 12.5865 13.054 12.9534 12.9095 13.295C12.765 13.6366 12.5542 13.9462 12.2892 14.2057C12.0242 14.4652 11.7103 14.6696 11.3658 14.807C11.0213 14.9443 10.6529 15.0119 10.282 15.0059Z" fill="#484E55"/>
<path d="M49.6875 15.0058C49.1318 15.0075 48.5881 14.8444 48.125 14.5373C47.6618 14.2301 47.3001 13.7927 47.0853 13.2801C46.8706 12.7676 46.8125 12.2029 46.9184 11.6574C47.0243 11.1119 47.2894 10.61 47.6803 10.215C48.0712 9.82 48.5704 9.54967 49.1148 9.43812C49.6592 9.32656 50.2244 9.37877 50.7392 9.58817C51.2539 9.79756 51.6951 10.1548 52.007 10.6147C52.3189 11.0746 52.4876 11.6166 52.4918 12.1723C52.4958 12.543 52.4263 12.9109 52.2871 13.2546C52.148 13.5983 51.9421 13.911 51.6812 14.1745C51.4204 14.438 51.1099 14.6472 50.7677 14.7899C50.4254 14.9326 50.0583 15.006 49.6875 15.0058Z" fill="#484E55"/>
<path d="M6.54843 43.1181C5.99013 43.1137 5.44577 42.9433 4.98466 42.6285C4.52355 42.3137 4.16656 41.8688 3.95916 41.3504C3.75176 40.8321 3.70333 40.2637 3.82004 39.7177C3.93676 39.1718 4.21333 38.6729 4.61453 38.2846C5.01574 37.8963 5.52342 37.6363 6.07294 37.5375C6.62245 37.4388 7.18892 37.5058 7.70021 37.7301C8.21149 37.9543 8.64446 38.3257 8.94397 38.7969C9.24347 39.2681 9.39597 39.8178 9.38202 40.3759C9.36361 41.1132 9.05629 41.8138 8.52628 42.3267C7.99626 42.8397 7.28597 43.1238 6.54843 43.1181Z" fill="#484E55"/>
<path d="M50.618 40.2737C50.6242 39.718 50.795 39.1766 51.1087 38.7178C51.4224 38.2591 51.865 37.9036 52.3806 37.6962C52.8962 37.4887 53.4617 37.4387 54.0057 37.5524C54.5497 37.6661 55.0478 37.9384 55.4372 38.335C55.8265 38.7315 56.0897 39.2345 56.1934 39.7805C56.2971 40.3265 56.2368 40.891 56.0199 41.4027C55.8031 41.9144 55.4396 42.3504 54.9751 42.6557C54.5107 42.9609 53.9663 43.1218 53.4106 43.1179C53.0402 43.1153 52.674 43.0395 52.333 42.895C51.992 42.7506 51.6829 42.5401 51.4235 42.2759C51.164 42.0116 50.9593 41.6987 50.821 41.3551C50.6828 41.0115 50.6138 40.644 50.618 40.2737Z" fill="#484E55"/>
<path d="M33.75 25.2843C33.75 24.2296 33.777 23.1749 33.7371 22.1203C33.7195 21.6515 33.8684 21.5472 34.316 21.5519C35.9895 21.5742 37.0395 20.8488 37.4016 19.4425C37.6875 18.3374 37.3723 17.3871 36.525 16.6464C35.6567 15.8859 34.65 15.7218 33.5824 16.1777C32.543 16.6265 31.9699 17.4492 31.8844 18.573C31.7988 19.6968 31.8188 19.6874 30.7031 19.6874C29.9813 19.6874 29.2582 19.6699 28.5375 19.6957C28.193 19.7085 28.1063 19.5855 28.1238 19.2644C28.1645 18.8168 28.1248 18.3656 28.0067 17.932C27.5906 16.5808 26.1633 15.7054 24.8109 15.9749C24.124 16.1065 23.5095 16.4861 23.0844 17.0415C22.6593 17.5969 22.4534 18.2892 22.5059 18.9867C22.6031 20.373 23.8149 21.5203 25.2246 21.5648C26.2512 21.5953 26.2512 21.5953 26.2512 22.5972C26.2512 24.5695 26.2406 26.5406 26.2606 28.5117C26.2606 28.916 26.2137 29.1304 25.7367 29.0718C25.3149 29.0191 24.7781 29.189 24.4887 28.9898C24.2543 28.8281 24.334 28.2433 24.2543 27.8484C24.0199 26.6109 23.3977 25.5597 22.643 24.5777C22.1203 23.898 21.5883 23.2218 21.041 22.5621C17.1117 17.8394 18.3316 10.1683 23.7949 6.57065C30.6141 2.07885 39.8063 6.1019 41.0953 14.1644C41.5781 17.1867 40.9781 19.9804 39.0492 22.4273C38.3461 23.3144 37.643 24.1968 36.9703 25.1074C36.1805 26.1796 35.6813 27.3796 35.6285 28.725C35.6156 29.0261 35.502 29.0589 35.2465 29.0683C33.7442 29.1234 33.7442 29.1292 33.7442 27.6269L33.75 25.2843Z" fill="white"/>
<path d="M31.875 25.3126C31.875 26.4224 31.8644 27.5392 31.882 28.6442C31.882 28.9618 31.8164 29.0849 31.4707 29.0767C30.4769 29.0532 29.4785 29.0602 28.4894 29.0767C28.2164 29.0767 28.1191 29.011 28.1215 28.7251C28.1324 26.4642 28.1324 24.2032 28.1215 21.9423C28.1215 21.6751 28.1789 21.5661 28.473 21.5708C29.4867 21.5884 30.5004 21.5919 31.5129 21.5708C31.8539 21.5638 31.8832 21.7126 31.8797 21.9868C31.868 23.086 31.875 24.1958 31.875 25.3126Z" fill="white"/>
<path d="M30.0223 30.9375C31.132 30.9375 32.2418 30.9457 33.3504 30.9316C33.641 30.9316 33.7477 30.9914 33.7582 31.3125C33.8063 32.8125 33.818 32.8113 32.3145 32.8113C30.4453 32.8113 28.5762 32.8043 26.707 32.8195C26.366 32.8195 26.2383 32.7574 26.2383 32.3789C26.2301 30.9375 26.2137 30.9375 27.6246 30.9375H30.0223Z" fill="#D8D9DA"/>
<path d="M30 34.6876C30.7219 34.6876 31.4449 34.7016 32.1656 34.6805C32.4715 34.6712 32.5523 34.7696 32.4574 35.045C32.4539 35.0644 32.4515 35.0839 32.4504 35.1036C32.1563 36.5626 32.1563 36.5626 30.6715 36.5626C29.8723 36.5626 29.0719 36.5509 28.2727 36.5626C28.0078 36.5684 27.9117 36.4747 27.8332 36.2274C27.3457 34.6876 27.3387 34.6876 28.9453 34.6876H30Z" fill="#AFAEB4"/>
<path d="M25.6734 19.6876C24.907 19.6876 24.5273 19.4532 24.4008 18.9481C24.2836 18.4958 24.5847 18.0106 25.0594 17.8548C25.1761 17.8185 25.2991 17.8065 25.4207 17.8196C25.5423 17.8327 25.6599 17.8705 25.7663 17.9308C25.8727 17.9911 25.9656 18.0725 26.0393 18.1701C26.1131 18.2677 26.166 18.3793 26.1949 18.4981C26.2677 18.8207 26.2828 19.1535 26.2394 19.4813C26.1879 19.8903 25.8281 19.5962 25.6734 19.6876Z" fill="#459096"/>
<path d="M34.3031 19.6875C33.8848 19.7907 33.7113 19.6266 33.7371 19.1204C33.7781 18.2801 34.0594 17.8313 34.6629 17.8137C34.9085 17.8157 35.1442 17.911 35.3222 18.0803C35.5002 18.2496 35.6072 18.4802 35.6215 18.7254C35.6379 19.336 35.1738 19.6875 34.3031 19.6875Z" fill="#459096"/>
<path d="M9.35624 33.75C7.97343 33.75 6.58944 33.7418 5.20663 33.75C4.85507 33.75 4.78593 33.6762 4.89023 33.32C5.4539 31.4063 7.31015 30.0059 9.35038 30C10.3603 29.9956 11.3449 30.3156 12.1592 30.9128C12.9736 31.5101 13.5746 32.3531 13.8738 33.3176C14.0039 33.7512 13.8375 33.7547 13.5059 33.7524C12.123 33.7407 10.7402 33.75 9.35624 33.75Z" fill="#459096"/>
<path d="M11.2559 26.2501C11.2559 26.6215 11.1455 26.9846 10.9389 27.2932C10.7322 27.6018 10.4385 27.8421 10.0951 27.9836C9.75167 28.1251 9.37396 28.1614 9.00986 28.0879C8.64577 28.0144 8.31171 27.8345 8.05005 27.5708C7.7884 27.3072 7.61094 26.9718 7.54019 26.6072C7.46944 26.2425 7.50858 25.8651 7.65265 25.5227C7.79673 25.1804 8.03924 24.8885 8.34943 24.6842C8.65961 24.4799 9.0235 24.3723 9.39492 24.3751C9.88814 24.3839 10.3585 24.5847 10.706 24.9348C11.0535 25.2849 11.2508 25.7568 11.2559 26.2501Z" fill="white"/>
<path d="M53.4433 28.7517C55.5093 29.8404 56.7586 31.501 57.116 33.8014C57.1523 34.034 57.1715 34.269 57.1734 34.5045C57.1828 35.2627 56.8371 35.6224 56.0824 35.6248C54.0339 35.6248 51.9808 35.6248 49.9347 35.6248C48.3539 35.6248 46.7707 35.6248 45.191 35.6248C44.3894 35.6248 44.0191 35.2732 44.0636 34.4869C44.189 32.04 45.3293 30.1943 47.4433 28.9627C47.7105 28.8068 47.8031 28.7435 47.591 28.4342C46.4285 26.7455 46.6851 24.6607 48.1769 23.374C48.8693 22.7922 49.7472 22.4776 50.6515 22.487C51.5558 22.4965 52.4269 22.8294 53.107 23.4256C54.5789 24.7428 54.7828 26.8099 53.6086 28.5033C53.5546 28.5771 53.5054 28.658 53.4433 28.7517Z" fill="#484E55"/>
<path d="M50.5629 33.75C49.1989 33.75 47.8336 33.7371 46.4696 33.7582C46.0746 33.764 46.0219 33.668 46.1344 33.2965C46.4336 32.3425 47.0292 31.5088 47.8347 30.9166C48.6402 30.3244 49.6136 30.0045 50.6134 30.0034C51.6132 30.0024 52.5872 30.3202 53.394 30.9108C54.2007 31.5013 54.7981 32.3337 55.0992 33.2871C55.2387 33.7359 55.0782 33.7558 54.7149 33.7558C53.3309 33.7394 51.9469 33.75 50.5629 33.75Z" fill="#459096"/>
<path d="M52.4906 26.2709C52.4864 26.6423 52.3719 27.0041 52.1618 27.3103C51.9516 27.6166 51.6553 27.8536 51.3103 27.9911C50.9653 28.1287 50.5872 28.1607 50.2239 28.0831C49.8607 28.0055 49.5287 27.8218 49.2701 27.5552C49.0114 27.2887 48.8378 26.9513 48.7711 26.5859C48.7045 26.2205 48.7479 25.8436 48.8958 25.5029C49.0437 25.1622 49.2895 24.8731 49.6019 24.6722C49.9144 24.4714 50.2794 24.3679 50.6508 24.3748C51.144 24.3889 51.6123 24.5949 51.9559 24.949C52.2996 25.3032 52.4914 25.7775 52.4906 26.2709Z" fill="white"/>
<path d="M47.3108 49.5549C50.4618 51.2153 52.367 53.7479 52.9121 57.2563C52.9676 57.6111 52.9968 57.9695 52.9997 58.3287C53.014 59.485 52.4868 60.0337 51.3358 60.0373C48.2116 60.0373 45.0803 60.0373 41.9597 60.0373C39.5487 60.0373 37.1341 60.0373 34.7248 60.0373C33.5023 60.0373 32.9375 59.5011 33.0055 58.3018C33.1967 54.57 34.9357 51.755 38.16 49.8766C38.5675 49.6389 38.7087 49.5424 38.3852 49.0706C36.6122 46.4951 37.0036 43.3155 39.2788 41.3531C40.3348 40.4658 41.6737 39.9859 43.0529 40.0003C44.4321 40.0147 45.7606 40.5225 46.7979 41.4317C49.0427 43.4406 49.3537 46.5934 47.5628 49.176C47.4806 49.2886 47.4055 49.4119 47.3108 49.5549Z" fill="#484E55"/>
<path d="M42.8078 57.9842C40.4307 57.9842 38.0516 57.9602 35.6745 57.9995C34.9863 58.0105 34.8944 57.8313 35.0904 57.1388C35.6118 55.3604 36.6497 53.8063 38.0535 52.7023C39.4572 51.5983 41.1535 51.002 42.8957 51C44.638 50.9981 46.3354 51.5906 47.7413 52.6914C49.1472 53.7923 50.1882 55.3441 50.713 57.1213C50.956 57.958 50.6763 57.9952 50.0432 57.9952C47.6314 57.9646 45.2196 57.9842 42.8078 57.9842Z" fill="#459096"/>
<path d="M45.8578 45.7712C45.8513 46.3376 45.6767 46.8894 45.3562 47.3565C45.0357 47.8236 44.5837 48.1849 44.0576 48.3948C43.5314 48.6046 42.9548 48.6534 42.4008 48.5351C41.8468 48.4167 41.3405 48.1365 40.946 47.7299C40.5516 47.3234 40.2867 46.8089 40.1851 46.2516C40.0834 45.6943 40.1496 45.1194 40.3752 44.5998C40.6008 44.0802 40.9756 43.6393 41.4521 43.333C41.9286 43.0267 42.4854 42.8688 43.0517 42.8794C43.804 42.9008 44.5183 43.215 45.0423 43.7552C45.5664 44.2953 45.859 45.0186 45.8578 45.7712Z" fill="white"/>
<path d="M21.3108 49.5549C24.4618 51.2153 26.367 53.7479 26.9121 57.2563C26.9676 57.6111 26.9968 57.9695 26.9997 58.3287C27.014 59.485 26.4868 60.0337 25.3358 60.0373C22.2116 60.0373 19.0803 60.0373 15.9597 60.0373C13.5487 60.0373 11.1341 60.0373 8.72482 60.0373C7.50233 60.0373 6.93755 59.5011 7.00546 58.3018C7.1967 54.57 8.93572 51.755 12.16 49.8766C12.5675 49.6389 12.7087 49.5424 12.3852 49.0706C10.6122 46.4951 11.0036 43.3155 13.2788 41.3531C14.3348 40.4658 15.6737 39.9859 17.0529 40.0003C18.4321 40.0147 19.7606 40.5225 20.7979 41.4317C23.0427 43.4406 23.3537 46.5934 21.5628 49.176C21.4806 49.2886 21.4055 49.4119 21.3108 49.5549Z" fill="#484E55"/>
<path d="M16.8078 57.9842C14.4307 57.9842 12.0516 57.9602 9.67448 57.9995C8.98626 58.0105 8.89436 57.8313 9.09041 57.1388C9.61176 55.3604 10.6497 53.8063 12.0535 52.7023C13.4572 51.5983 15.1535 51.002 16.8957 51C18.638 50.9981 20.3354 51.5906 21.7413 52.6914C23.1472 53.7923 24.1882 55.3441 24.713 57.1213C24.956 57.958 24.6763 57.9952 24.0432 57.9952C21.6314 57.9646 19.2196 57.9842 16.8078 57.9842Z" fill="#459096"/>
<path d="M19.8578 45.7712C19.8513 46.3376 19.6767 46.8894 19.3562 47.3565C19.0357 47.8236 18.5837 48.1849 18.0576 48.3948C17.5314 48.6046 16.9548 48.6534 16.4008 48.5351C15.8468 48.4167 15.3405 48.1365 14.946 47.7299C14.5516 47.3234 14.2867 46.8089 14.1851 46.2516C14.0834 45.6943 14.1496 45.1194 14.3752 44.5998C14.6008 44.0802 14.9756 43.6393 15.4521 43.333C15.9286 43.0267 16.4854 42.8688 17.0517 42.8794C17.804 42.9008 18.5183 43.215 19.0423 43.7552C19.5664 44.2953 19.859 45.0186 19.8578 45.7712Z" fill="white"/>
<path d="M31.875 44.0508C31.8773 44.4225 31.7691 44.7866 31.5641 45.0966C31.359 45.4067 31.0665 45.6489 30.7235 45.7923C30.3806 45.9357 30.0027 45.974 29.638 45.9022C29.2732 45.8304 28.9381 45.6519 28.675 45.3892C28.412 45.1265 28.233 44.7915 28.1608 44.4269C28.0885 44.0622 28.1263 43.6843 28.2693 43.3412C28.4123 42.9981 28.6541 42.7052 28.9639 42.4998C29.2737 42.2944 29.6376 42.1857 30.0094 42.1875C30.5011 42.1959 30.9704 42.3949 31.3184 42.7424C31.6664 43.09 31.866 43.5591 31.875 44.0508Z" fill="#83CFD6"/>
<path d="M10.3406 13.1308C10.1543 13.1353 9.97093 13.0841 9.81385 12.9838C9.65678 12.8835 9.53316 12.7387 9.45878 12.5678C9.38439 12.3969 9.36262 12.2078 9.39624 12.0245C9.42986 11.8412 9.51735 11.6721 9.64753 11.5387C9.77771 11.4054 9.94468 11.3138 10.1271 11.2758C10.3096 11.2378 10.4992 11.255 10.6718 11.3253C10.8444 11.3955 10.9922 11.5156 11.0962 11.6703C11.2002 11.8249 11.2558 12.007 11.2559 12.1933C11.2516 12.4368 11.1545 12.6695 10.9843 12.8438C10.8142 13.018 10.584 13.1207 10.3406 13.1308Z" fill="#83CFD6"/>
<path d="M50.6168 12.1957C50.6168 12.3818 50.5614 12.5637 50.4576 12.7182C50.3538 12.8727 50.2064 12.9928 50.0342 13.0633C49.8619 13.1337 49.6726 13.1513 49.4903 13.1138C49.308 13.0763 49.141 12.9854 49.0106 12.8526C48.8801 12.7198 48.7921 12.5513 48.7578 12.3683C48.7235 12.1854 48.7445 11.9964 48.818 11.8254C48.8914 11.6544 49.0141 11.5092 49.1705 11.4082C49.3268 11.3071 49.5096 11.2549 49.6957 11.2582C49.9401 11.2669 50.1718 11.3689 50.3432 11.5433C50.5145 11.7177 50.6125 11.9512 50.6168 12.1957Z" fill="#83CFD6"/>
<path d="M7.50703 40.3324C7.50289 40.5187 7.44333 40.6995 7.33597 40.8517C7.22861 41.004 7.0783 41.1209 6.90425 41.1873C6.73019 41.2538 6.54027 41.2669 6.35873 41.225C6.1772 41.183 6.01227 41.0879 5.88501 40.9519C5.75775 40.8158 5.67393 40.6449 5.64424 40.4609C5.61455 40.277 5.64035 40.0884 5.71833 39.9191C5.79631 39.7499 5.92294 39.6078 6.08207 39.5109C6.24119 39.4139 6.42559 39.3666 6.61172 39.375C6.85463 39.391 7.08232 39.4989 7.2486 39.6767C7.41487 39.8545 7.50727 40.0889 7.50703 40.3324Z" fill="#83CFD6"/>
<path d="M54.3645 40.2926C54.3675 40.4787 54.3151 40.6614 54.2139 40.8176C54.1128 40.9737 53.9674 41.0962 53.7964 41.1695C53.6254 41.2428 53.4364 41.2636 53.2536 41.2292C53.0707 41.1947 52.9022 41.1067 52.7696 40.9762C52.637 40.8457 52.5461 40.6787 52.5087 40.4964C52.4713 40.3142 52.489 40.1249 52.5594 39.9527C52.6299 39.7805 52.7501 39.6332 52.9045 39.5295C53.059 39.4258 53.2409 39.3704 53.4269 39.3704C53.6714 39.3753 53.9048 39.4736 54.0791 39.6451C54.2534 39.8166 54.3555 40.0482 54.3645 40.2926Z" fill="#83CFD6"/>
<path d="M16.8633 41.8001C17.6073 41.7957 18.3359 42.0128 18.9562 42.4237C19.5765 42.8346 20.0606 43.4207 20.3468 44.1075C20.633 44.7943 20.7085 45.5507 20.5635 46.2806C20.4186 47.0104 20.0598 47.6806 19.5328 48.2059C19.0059 48.7312 18.3346 49.0878 17.6043 49.2305C16.874 49.3731 16.1178 49.2953 15.4319 49.0069C14.746 48.7185 14.1614 48.2326 13.7525 47.611C13.3436 46.9894 13.1288 46.2602 13.1355 45.5161C13.1444 44.5313 13.5404 43.5895 14.2379 42.8942C14.9354 42.1989 15.8784 41.8059 16.8633 41.8001Z" fill="white"/>
<path d="M43.125 41.8C43.8689 41.8001 44.596 42.0215 45.2138 42.4359C45.8316 42.8503 46.3121 43.4391 46.5943 44.1274C46.8765 44.8157 46.9477 45.5724 46.7986 46.3013C46.6496 47.0301 46.2872 47.6981 45.7575 48.2204C45.2277 48.7427 44.5546 49.0956 43.8237 49.2343C43.0929 49.373 42.3373 49.2912 41.653 48.9992C40.9688 48.7073 40.3868 48.2185 39.9812 47.5949C39.5756 46.9713 39.3645 46.2412 39.375 45.4973C39.3889 44.5119 39.7901 43.5716 40.4918 42.8797C41.1936 42.1878 42.1395 41.8 43.125 41.8Z" fill="white"/>
</g>
<defs>
<clipPath id="clip0_1342_6223">
<rect width="60" height="60" fill="white"/>
</clipPath>
</defs>
</svg>
