<svg width="60" height="60" viewBox="0 0 60 60" fill="none" xmlns="http://www.w3.org/2000/svg">
<path d="M3.82079 56.6401C4.06079 56.6401 4.27679 56.6689 4.50479 56.6689H56.4504C57.5016 56.6689 57.5592 56.6113 57.5592 55.5769C57.5592 49.9449 57.5592 44.3129 57.5592 38.6809C57.544 38.4535 57.5594 38.225 57.6048 38.0017C57.6553 37.8137 57.7689 37.6488 57.9266 37.5348C58.0843 37.4208 58.2765 37.3645 58.4708 37.3755C58.6652 37.3865 58.8498 37.464 58.9936 37.5951C59.1375 37.7262 59.2318 37.9028 59.2608 38.0953C59.2812 38.2657 59.286 38.4376 59.2752 38.6089V55.7905C59.2752 57.4969 58.3824 58.3969 56.664 58.3969C38.8528 58.3969 21.0416 58.4009 3.23039 58.4089C1.91279 58.4089 1.07039 57.8209 0.609589 56.6401V12.8713C1.11839 11.5321 2.10719 11.0617 3.50879 11.0833C6.82559 11.1361 10.1448 11.0833 13.464 11.1097C13.9128 11.1097 14.064 10.9969 14.0232 10.5457C13.9488 9.71529 14.1192 8.9521 14.7696 8.3593C15.2813 7.9197 15.9442 7.69674 16.6176 7.7377C19.0752 7.7377 21.5376 7.7377 23.9952 7.7377C24.42 7.7377 24.588 7.6633 24.5712 7.1905C24.5328 6.0457 24.552 4.9009 24.5712 3.7585C24.5832 2.4097 25.4232 1.5409 26.7624 1.4833C27.0864 1.4689 27.4104 1.4833 27.7224 1.4833C28.3248 1.4641 28.704 1.7233 28.812 2.3305C28.9896 2.7817 28.6896 3.0001 28.3776 3.1921C28.1568 3.31598 27.9104 3.38742 27.6576 3.4009C26.4384 3.4609 26.4384 3.4609 26.4384 4.6729V12.8521C26.4384 13.8313 26.4384 13.8313 27.3984 13.8385C27.5136 13.8385 27.6384 13.8385 27.7416 13.8385C29.3832 13.8145 31.0224 13.8385 32.664 13.8265C33.3624 13.8265 33.4032 13.7833 33.4056 13.0777C33.4056 10.1593 33.4056 7.2409 33.4056 4.3225C33.4056 3.5113 33.3336 3.4441 32.5296 3.4153C32.166 3.43374 31.8038 3.35767 31.4784 3.1945C31.164 3.0025 30.8664 2.7793 31.0464 2.3281C31.1496 1.7137 31.5264 1.4569 32.1336 1.4761C32.4768 1.4761 32.8224 1.4761 33.1632 1.4761C34.4424 1.5457 35.2824 2.4121 35.2968 3.6937C35.3112 4.8385 35.3232 5.9857 35.2968 7.1305C35.2824 7.5937 35.388 7.7377 35.88 7.7329C38.304 7.7041 40.7304 7.7161 43.1544 7.7329C44.964 7.7329 45.8688 8.6281 45.84 10.4473C45.84 10.9609 45.9552 11.1097 46.488 11.1073C49.8864 11.0809 53.2848 11.0881 56.6832 11.0953C58.0296 11.0953 58.8744 11.7001 59.1888 12.8329C59.2453 13.0742 59.2687 13.3221 59.2584 13.5697V33.9121C59.2668 34.0263 59.2668 34.141 59.2584 34.2553C59.2388 34.4587 59.1466 34.6483 58.9986 34.7892C58.8507 34.9301 58.6568 35.013 58.4527 35.0226C58.2486 35.0323 58.0478 34.968 57.8872 34.8416C57.7267 34.7152 57.617 34.5352 57.5784 34.3345C57.5471 34.1265 57.5374 33.9157 57.5496 33.7057V13.8289C57.5496 12.9385 57.4464 12.8305 56.5728 12.8305C49.68 12.8305 42.7872 12.8305 35.8944 12.8305C35.6976 12.8305 35.2992 12.6457 35.3376 13.0705C35.3664 13.4137 34.9968 13.9225 35.6712 14.0977C35.7706 14.119 35.8646 14.1602 35.9475 14.2189C36.0305 14.2776 36.1007 14.3525 36.1539 14.4391C36.2071 14.5258 36.2421 14.6222 36.2569 14.7228C36.2717 14.8233 36.266 14.9258 36.24 15.0241C36.1608 15.5041 35.8248 15.7441 35.3472 15.7441C33.8208 15.7441 32.292 15.7441 30.7656 15.7441C28.7224 15.7441 26.6792 15.7441 24.636 15.7441C24.144 15.7441 23.7504 15.5905 23.6448 15.0769C23.5392 14.5633 23.8008 14.2297 24.3096 14.0449C24.8184 13.8601 24.4848 13.3969 24.5496 13.0657C24.6144 12.7345 24.3096 12.8257 24.1512 12.8257H4.04639C3.97066 12.8306 3.89531 12.8402 3.82079 12.8545C3.7316 12.9274 3.62883 12.982 3.51842 13.0149C3.40802 13.0479 3.29217 13.0586 3.17759 13.0465C2.71439 13.0465 2.53199 13.3009 2.52239 13.7305C2.52239 13.9201 2.52239 14.1121 2.52239 14.3017C2.52239 27.9321 2.52239 41.5617 2.52239 55.1905C2.52239 55.3249 2.52239 55.4569 2.52239 55.5913C2.54879 56.2897 2.61839 56.3713 3.29519 56.4529C3.48608 56.4565 3.67059 56.5222 3.82079 56.6401Z" fill="#484E55"/>
<path d="M32.9112 44.652C34.1328 46.6248 33.8424 48.804 33.7248 50.9424C33.6672 52.0248 32.7408 52.8432 31.6536 52.9872C31.3704 53.0256 31.085 53.0449 30.7992 53.0448C23.6616 53.0448 16.524 53.0184 9.38639 53.064C7.22639 53.0784 6.19919 51.7152 6.33119 50.0232C6.41759 48.924 6.26399 47.8152 6.43199 46.7112C6.57476 46.0231 6.82417 45.3616 7.17119 44.7504C7.35599 44.0568 7.93199 43.6896 8.42399 43.26C8.64508 43.0836 8.87848 42.9232 9.12239 42.78C10.7496 42.0192 12.456 41.4528 14.1192 40.7808C14.6304 40.5744 15.1464 40.3704 15.6672 40.1808C15.8076 40.1382 15.9355 40.0618 16.0395 39.9583C16.1436 39.8547 16.2206 39.7273 16.264 39.5871C16.3073 39.4468 16.3156 39.2981 16.2882 39.1539C16.2607 39.0097 16.1983 38.8745 16.1064 38.76C16.0196 38.634 15.9163 38.5202 15.7992 38.4216C15.0637 37.7456 14.5346 36.8753 14.2728 35.9112C14.2352 35.7551 14.159 35.6109 14.0513 35.4918C13.9435 35.3727 13.8076 35.2826 13.656 35.2296C11.976 34.5576 11.2104 32.5896 12.1488 31.0752C12.3234 30.756 12.4065 30.3947 12.3888 30.0312C12.4128 29.0712 12.3096 28.0872 12.516 27.12C13.2648 23.568 16.32 21.1488 19.9344 21.0672C20.9575 21.0618 21.9714 21.2599 22.9172 21.6501C23.863 22.0402 24.7217 22.6147 25.4434 23.3399C26.165 24.0651 26.7352 24.9267 27.1207 25.8744C27.5062 26.8221 27.6993 27.837 27.6888 28.86C27.6888 29.2608 27.6888 29.664 27.6888 30.06C27.6785 30.4413 27.7608 30.8193 27.9288 31.1616C28.704 32.7864 28.0992 34.4352 26.4528 35.1504C26.2671 35.2181 26.1006 35.3295 25.9673 35.4754C25.834 35.6212 25.7379 35.7971 25.6872 35.988C25.4285 36.8939 24.9447 37.7196 24.2808 38.388C24.1542 38.5154 24.055 38.6674 23.9894 38.8346C23.9238 39.0017 23.8931 39.1806 23.8992 39.36C23.8721 39.539 23.9133 39.7215 24.0147 39.8714C24.1161 40.0213 24.2702 40.1275 24.4464 40.1688C26.4272 40.9256 28.4032 41.6904 30.3744 42.4632C31.0988 42.7649 31.7593 43.2014 32.3208 43.7496C32.5907 43.9957 32.7938 44.3062 32.9112 44.652Z" fill="#484E55"/>
<path d="M32.9112 44.652C32.0208 43.4712 30.8304 42.7464 29.4456 42.252C27.7248 41.6424 26.0352 40.944 24.3336 40.2744C24.0936 40.1832 23.7264 40.2168 23.7384 39.8544C23.7552 39.4176 23.5248 38.9088 23.9112 38.5464C24.8032 37.7311 25.421 36.6597 25.68 35.4792C25.7424 35.196 25.9512 35.184 26.136 35.124C27.9144 34.5288 28.6488 32.6808 27.7128 31.0848C27.5749 30.8369 27.5116 30.5543 27.5304 30.2712C27.5496 28.8312 27.5496 27.42 27.0312 26.0424C26.4257 24.4724 25.315 23.1485 23.8741 22.2795C22.4331 21.4104 20.744 21.0456 19.0728 21.2424C15.7128 21.6288 12.9 24.4272 12.5424 27.7776C12.4536 28.6272 12.4968 29.4912 12.492 30.3504C12.4989 30.6152 12.4307 30.8765 12.2952 31.104C12.0746 31.4563 11.9388 31.8551 11.8986 32.2688C11.8584 32.6825 11.9149 33.0999 12.0636 33.4881C12.2123 33.8763 12.4492 34.2246 12.7555 34.5056C13.0618 34.7866 13.4293 34.9925 13.8288 35.1072C13.9659 35.1334 14.0917 35.2011 14.1892 35.3011C14.2866 35.4011 14.351 35.5287 14.3736 35.6664C14.6269 36.7712 15.2244 37.7671 16.08 38.5104C16.7424 39.1104 16.56 39.9864 15.7488 40.3056C13.536 41.1696 11.3264 42.0376 9.11999 42.9096C8.85359 42.8928 8.85599 42.6696 8.82479 42.4968C8.79962 42.269 8.7924 42.0395 8.80319 41.8104V22.2864C8.79647 21.8667 8.82214 21.447 8.87999 21.0312C9.00239 20.2296 9.40559 19.6992 10.2288 19.536C11.7552 19.536 13.2816 19.5168 14.808 19.5168H30.96C32.3136 19.5168 32.9256 20.1168 32.928 21.456V44.196C32.9304 44.3472 32.9184 44.5008 32.9112 44.652Z" fill="#83CFD6"/>
<path d="M27.7704 3.24716C28.3224 3.17516 28.7304 2.94716 28.8168 2.33276H31.0728C31.2768 3.01676 31.5048 3.21596 32.208 3.21116C33.7608 3.21116 33.6072 3.14396 33.6072 4.65116C33.6072 7.59116 33.6072 10.5312 33.6072 13.4712C33.6072 13.884 33.528 14.028 33.0816 14.0208C31.308 13.9872 29.532 13.9968 27.756 13.9896C27.5496 13.7736 27.576 13.5096 27.576 13.2336C27.576 10.1552 27.576 7.07516 27.576 3.99356C27.5414 3.72896 27.6111 3.46127 27.7704 3.24716Z" fill="#83CFD6"/>
<path d="M3.82079 56.64C3.80269 56.6459 3.78426 56.6507 3.76559 56.6544C2.39519 56.736 2.32559 56.6784 2.32559 55.332V14.16C2.32559 12.804 2.41199 12.72 3.81599 12.852L3.82079 56.64Z" fill="#459096"/>
<path d="M10.2288 19.5361C9.24719 19.9897 8.97599 20.8201 8.97599 21.8209C8.97599 28.6561 8.97599 35.4897 8.97599 42.3216C8.97599 42.5233 8.90879 42.7488 9.10559 42.9096C8.35609 43.4046 7.69966 44.0277 7.16639 44.7505C7.16639 41.6401 7.16239 38.5305 7.15439 35.4217C7.15439 30.8041 7.15439 26.1865 7.15439 21.5689C7.15439 20.1289 7.76159 19.5145 9.19439 19.5169C9.54239 19.5169 9.88559 19.5289 10.2288 19.5361Z" fill="#459096"/>
<path d="M52.3968 22.2695C52.5828 22.7944 52.5828 23.3671 52.3968 23.8919C52.1808 24.5519 51.6144 24.7559 50.9928 24.7583C47.372 24.7727 43.7504 24.7727 40.128 24.7583C39.168 24.7583 38.6688 24.1871 38.6712 23.2271C38.6712 22.8743 38.5728 22.5071 38.8056 22.1711C39.648 22.8143 40.632 22.6511 41.5872 22.6631H49.296C50.3376 22.6607 51.408 22.7831 52.3968 22.2695Z" fill="#459096"/>
<path d="M45.6 48.5113C43.3696 48.5113 41.1384 48.5113 38.9064 48.5113C38.2536 48.5113 37.8792 48.2233 37.8576 47.7241C37.836 47.1553 38.2128 46.8 38.9136 46.8C43.3584 46.8 47.8024 46.8 52.2456 46.8C52.7136 46.8 53.1264 46.9272 53.292 47.4265C53.3499 47.5998 53.3478 47.7876 53.286 47.9595C53.2241 48.1315 53.1062 48.2777 52.9512 48.3745C52.7363 48.5074 52.4801 48.557 52.2312 48.5137L45.6 48.5113Z" fill="#AFB6BD"/>
<path d="M45.5472 30.4081H38.9112C38.22 30.4081 37.8456 30.1081 37.848 29.5753C37.8504 29.0425 38.2152 28.6969 38.8896 28.6969C43.352 28.6873 47.8144 28.6873 52.2768 28.6969C52.9248 28.6969 53.3232 29.0665 53.3184 29.5897C53.3136 30.1129 52.9272 30.4081 52.2384 30.4081H45.5472Z" fill="#AFB6BD"/>
<path d="M45.6 33.2568C47.8128 33.2568 50.0248 33.2568 52.236 33.2568C52.9224 33.2568 53.3088 33.5568 53.3112 34.08C53.3136 34.6032 52.9128 34.968 52.2648 34.968C47.804 34.968 43.3416 34.968 38.8776 34.968C38.2032 34.968 37.8408 34.6296 37.8408 34.0824C37.8408 33.5352 38.2128 33.2568 38.9088 33.2568C41.1424 33.2536 43.3728 33.2536 45.6 33.2568Z" fill="#AFB6BD"/>
<path d="M45.6144 39.4609C43.3744 39.4609 41.1432 39.4609 38.9208 39.4609C38.2224 39.4609 37.8528 39.1681 37.848 38.6377C37.8432 38.1073 38.22 37.7473 38.9376 37.7473C43.36 37.7473 47.784 37.7473 52.2096 37.7473C52.6752 37.7473 53.0904 37.8721 53.2728 38.3545C53.4192 38.7409 53.2728 39.0529 52.9584 39.3145C52.7497 39.4519 52.497 39.5059 52.2504 39.4657L45.6144 39.4609Z" fill="#AFB6BD"/>
<path d="M45.6 42.3072H52.236C52.9272 42.3072 53.3112 42.6024 53.3232 43.1184C53.3352 43.6344 52.9248 44.0208 52.2336 44.0232C47.7888 44.0232 43.3456 44.0232 38.904 44.0232C38.4384 44.0232 38.0232 43.8864 37.8768 43.3752C37.825 43.1996 37.8333 43.0118 37.9002 42.8414C37.9671 42.671 38.089 42.5278 38.2464 42.4344C38.4654 42.3126 38.7192 42.2686 38.9664 42.3096C41.1728 42.3048 43.384 42.304 45.6 42.3072Z" fill="#AFB6BD"/>
<path d="M52.3968 22.2697C51.9336 22.7761 51.3456 22.8529 50.6904 22.8481C47.1704 22.8289 43.6504 22.8289 40.1304 22.8481C39.8664 22.8714 39.6011 22.82 39.3647 22.7C39.1284 22.5799 38.9305 22.3959 38.7936 22.1689C39.0552 21.5617 39.5688 21.3601 40.1736 21.3601C43.772 21.3601 47.372 21.3601 50.9736 21.3601C51.6168 21.3601 52.1544 21.6001 52.3968 22.2697Z" fill="#83CFD6"/>
<path d="M27.7704 3.24724C27.7704 6.83124 27.7704 10.4152 27.7704 13.9992C26.2848 14.076 26.2848 14.076 26.2848 12.624V4.27924C26.2848 3.21844 26.2848 3.21844 27.3192 3.22324C27.4656 3.22564 27.6168 3.24004 27.7704 3.24724Z" fill="#459096"/>
<path d="M39.684 11.1287C38.388 11.1287 37.092 11.1287 35.7984 11.1287C35.4216 11.1287 35.3184 11.0207 35.3184 10.6487C35.3184 9.44873 35.3016 9.44873 36.5016 9.44873H43.0728C44.0568 9.44873 44.4384 9.98393 44.1504 10.9367C44.0664 11.2175 43.8504 11.1215 43.6704 11.1215C42.3504 11.1335 41.016 11.1287 39.684 11.1287Z" fill="#83CFD6"/>
<path d="M24.5328 9.54251C24.5832 10.0412 24.5832 10.5438 24.5328 11.0425C24.101 11.1104 23.6626 11.1257 23.2272 11.0881C21.456 11.0881 19.6848 11.0881 17.9136 11.0881C17.0952 11.0881 17.016 11.0041 17.0472 10.1713C17.0688 9.55691 17.136 9.48971 17.7432 9.48731H24.0864C24.2375 9.46503 24.3917 9.48411 24.5328 9.54251Z" fill="#83CFD6"/>
<path d="M24.5328 9.54251C22.284 9.54251 20.0352 9.55691 17.7888 9.54251C17.3256 9.54251 17.1624 9.68891 17.22 10.1281C17.2356 10.242 17.2356 10.3574 17.22 10.4713C17.1576 10.9129 17.3232 11.0617 17.7864 11.0569C20.0328 11.0353 22.2816 11.0569 24.5304 11.0569C24.3576 11.2441 24.1344 11.1457 23.9376 11.1457C21.4176 11.1457 18.8984 11.1401 16.38 11.1289C16.14 11.1289 15.744 11.3209 15.7272 10.7689C15.7008 9.87611 15.8112 9.55691 16.3272 9.48971C16.6512 9.46207 16.9767 9.45486 17.3016 9.46811C19.5912 9.46811 21.8816 9.46811 24.1728 9.46811C24.2952 9.44651 24.444 9.38891 24.5328 9.54251Z" fill="#459096"/>
<path d="M25.0488 51.3336C24.42 51.3336 23.7888 51.3192 23.16 51.3336C22.8672 51.3336 22.716 51.276 22.6656 50.9544C22.4736 49.7544 22.2504 48.5544 22.056 47.3544C21.9744 46.8504 22.1328 46.7352 22.6392 46.8744C22.9441 46.973 23.2749 46.9537 23.5664 46.8205C23.8578 46.6872 24.0887 46.4496 24.2136 46.1544C24.7296 45.1584 25.236 44.1552 25.7136 43.14C25.872 42.8016 26.0208 42.7512 26.3592 42.9C27.3768 43.3224 28.4032 43.7224 29.4384 44.1C31.176 44.748 32.0304 46.02 32.0784 47.8392C32.1024 48.66 32.0928 49.4808 32.0784 50.2992C32.0784 51.0192 31.7856 51.3 31.068 51.3216C30.5544 51.336 30.0384 51.3216 29.5248 51.3216C29.2176 51.3336 29.1288 51.2208 29.136 50.9256C29.1552 50.2584 29.136 49.5912 29.136 48.924C29.136 48.3024 28.7928 47.9136 28.2864 47.916C27.78 47.9184 27.4368 48.3048 27.4248 48.9264C27.408 49.5936 27.408 50.2632 27.4248 50.9304C27.4248 51.2256 27.3408 51.3312 27.0384 51.3216C26.3856 51.3192 25.716 51.3336 25.0488 51.3336Z" fill="white"/>
<path d="M16.7688 30.7369C17.1384 30.5113 17.5512 30.6577 17.9424 30.5929C19.5098 30.3687 21.02 29.8473 22.392 29.0569C22.7856 28.8169 22.98 28.9225 23.2944 29.2105C23.5976 29.4646 23.8324 29.7905 23.9775 30.1586C24.1225 30.5266 24.1731 30.9251 24.1248 31.3177C24.0432 32.3041 24.1248 33.3001 24.1032 34.2937C24.0962 34.958 23.9256 35.6103 23.6065 36.1929C23.2874 36.7755 22.8296 37.2705 22.2736 37.634C21.7176 37.9975 21.0806 38.2184 20.4189 38.2771C19.7572 38.3358 19.0913 38.2305 18.48 37.9705C17.2944 37.1713 16.8504 35.9905 16.7016 34.6273C16.6145 33.5673 16.5824 32.5035 16.6056 31.4401C16.5664 31.1934 16.625 30.9412 16.7688 30.7369Z" fill="white"/>
<path d="M9.43921 44.8295C9.75997 44.5279 10.1424 44.2994 10.56 44.1599C11.604 43.7519 12.66 43.3703 13.692 42.9335C14.0856 42.7679 14.2752 42.8111 14.46 43.2119C14.8896 44.1431 15.3624 45.0527 15.8256 45.9695C16.2888 46.8863 16.656 47.0399 17.6568 46.7999C18.0672 46.6967 18.1368 46.9967 18.084 47.2535C17.8896 48.5327 17.6592 49.8071 17.4504 51.0935C17.412 51.3335 17.2704 51.3479 17.0832 51.3479C15.7296 51.3479 14.376 51.3479 13.0224 51.3479C12.7296 51.3479 12.6744 51.2111 12.6792 50.9615C12.6792 50.2943 12.6912 49.6247 12.6792 48.9575C12.6792 48.3287 12.3384 47.9471 11.8368 47.9447C11.3352 47.9423 11.0064 48.3191 10.9728 48.9479C10.932 49.7255 11.0376 50.5079 10.9128 51.2831C10.4328 51.3671 9.92401 51.2831 9.43441 51.3287C8.94481 51.3743 8.80321 51.1199 8.80081 50.6951C8.80081 49.9151 8.80081 49.1327 8.80081 48.3527C8.80081 47.8391 8.80081 47.3231 8.80081 46.8095C8.82001 46.0799 8.94961 45.3959 9.43921 44.8295Z" fill="white"/>
<path d="M17.568 23.5032C19.4352 22.5816 21.2472 22.7832 23.0184 23.7744C24.8568 24.8016 26.0616 27.2736 25.7616 29.4024C25.1808 28.7688 24.612 28.1376 24.0288 27.5208C23.4456 26.904 22.8912 26.8008 22.1448 27.2472C20.5786 28.2432 18.7884 28.8322 16.9368 28.9608C16.3464 28.9944 15.756 28.9896 15.1656 29.004C14.8896 28.5624 14.988 28.0824 15.0816 27.6288C15.4248 25.968 16.128 24.5112 17.568 23.5032Z" fill="white"/>
<path d="M16.7688 30.7368C16.7688 32.1456 16.7064 33.5592 16.8912 34.9584C17.0115 35.9078 17.4261 36.7958 18.0768 37.4976C18.216 37.6512 18.348 37.8144 18.4848 37.9776C16.9872 37.4832 15.9576 36.036 15.8928 34.26C15.8544 33.216 15.8688 32.1672 15.8928 31.1232C15.9048 30.4008 16.4472 30.8016 16.7688 30.7368Z" fill="#E3E9F7"/>
<path d="M9.43919 44.8296C8.97599 45.8448 8.95919 46.92 8.97119 48.0096C8.99279 48.9432 8.99039 49.8744 8.97119 50.808C8.97119 51.1632 9.08879 51.2736 9.43199 51.2616C9.92639 51.2424 10.4208 51.2616 10.9152 51.2616C10.1925 51.3967 9.45184 51.4048 8.72639 51.2856C8.27039 51.2256 8.05439 50.904 8.05919 50.4336C8.05919 49.4616 8.03279 48.4872 8.05919 47.5176C8.06467 46.9932 8.19223 46.4772 8.43177 46.0106C8.6713 45.5441 9.01622 45.1397 9.43919 44.8296Z" fill="#459096"/>
<path d="M19.44 40.0081C20.1405 40.0628 20.8453 40.0061 21.528 39.8401C21.6696 39.7993 21.8736 39.6313 21.9792 39.8401C22.0245 39.9251 22.0454 40.0211 22.0395 40.1173C22.0336 40.2134 22.0011 40.3061 21.9456 40.3849C21.372 41.1049 20.7864 41.8249 20.2032 42.5569C20.064 42.7297 19.9776 42.5953 19.896 42.4921C19.6176 42.1369 19.3416 41.7721 19.0632 41.4169C18.9119 41.0946 18.8593 40.7347 18.912 40.3825C18.9456 40.0657 19.0848 39.8905 19.44 40.0081Z" fill="#E3EAF7"/>
<path d="M24.3072 42.1583C23.8704 43.0391 23.4504 43.8671 23.052 44.7047C22.9296 44.9615 22.812 45.0071 22.5864 44.8271L22.5408 44.7935C21.2304 43.9463 21.2328 43.9463 22.2504 42.7319C22.3128 42.6599 22.3704 42.5855 22.4304 42.5111C23.172 41.5679 23.172 41.5679 24.3072 42.1583Z" fill="#459096"/>
<path d="M18.7992 43.8649C18.432 44.2513 17.964 44.4985 17.5488 44.8105C17.4552 44.8825 17.3568 45.0505 17.2104 44.8993C17.1509 44.8268 17.1024 44.7459 17.0664 44.6593C16.6992 43.9393 16.3464 43.1953 15.9648 42.4681C15.8448 42.2281 15.8424 42.1177 16.1112 41.9881C16.9608 41.5993 16.956 41.5873 17.5512 42.3241C17.8968 42.7561 18.2472 43.1857 18.5952 43.6153L18.7992 43.8649Z" fill="#459096"/>
<path d="M17.568 23.5032C17.3112 23.9616 16.848 24.2232 16.5456 24.648C15.5856 25.9488 15.0672 27.3768 15.1656 29.004C14.8222 29.1307 14.5258 29.3593 14.316 29.6592C13.8096 27.276 15.24 24.4488 17.568 23.5032Z" fill="#459096"/>
<path d="M20.076 51.36C19.1664 51.3456 19.1592 51.3432 19.2888 50.4672C19.404 49.6992 19.5288 48.9288 19.668 48.1656C19.704 47.9592 19.7016 47.7048 20.0544 47.7144C20.4072 47.724 20.4096 47.8896 20.448 48.1464C20.5872 49.044 20.7192 49.9488 20.928 50.8344C21.036 51.3 20.9136 51.42 20.4792 51.3624C20.345 51.353 20.2103 51.3522 20.076 51.36Z" fill="#459096"/>
<path d="M19.44 40.0079C19.1616 40.0199 19.044 40.1519 19.0632 40.4423C19.0824 40.7327 19.0632 41.0903 19.0632 41.4023C18.7848 41.0687 18.4992 40.7399 18.2304 40.3991C18.1709 40.3237 18.1355 40.2321 18.1286 40.1362C18.1218 40.0404 18.1439 39.9447 18.192 39.8615C18.2832 39.7007 18.4656 39.8279 18.6072 39.8615L19.44 40.0079Z" fill="#BEC3CC"/>
<path d="M20.0352 46.0032C19.7952 45.9528 19.3464 46.1256 19.3728 45.7224C19.392 45.4608 19.7976 45.2016 20.1096 45.2232C20.3856 45.24 20.7912 45.4632 20.7792 45.732C20.7576 46.1592 20.3136 45.9576 20.0352 46.0032Z" fill="#83CFD6"/>
<path d="M25.8552 31.6177C26.5896 32.1913 26.5752 32.8417 25.8552 33.3601V31.6177Z" fill="#BCC1CA"/>
<path d="M14.124 33.3408C13.4328 32.8176 13.428 32.2368 14.124 31.7112V33.3408Z" fill="#BDC2CB"/>
</svg>
