<svg width="50" height="50" viewBox="0 0 50 50" fill="none" xmlns="http://www.w3.org/2000/svg">
<path d="M25 0C31.6304 0 37.9893 2.63392 42.6777 7.32233C47.3661 12.0107 50 18.3696 50 25C50 31.6304 47.3661 37.9893 42.6777 42.6777C37.9893 47.3661 31.6304 50 25 50C18.3696 50 12.0107 47.3661 7.32233 42.6777C2.63392 37.9893 0 31.6304 0 25C0 18.3696 2.63392 12.0107 7.32233 7.32233C12.0107 2.63392 18.3696 0 25 0ZM25 21.9679L19.1929 16.1607C18.7908 15.7586 18.2454 15.5327 17.6768 15.5327C17.1081 15.5327 16.5628 15.7586 16.1607 16.1607C15.7586 16.5628 15.5327 17.1081 15.5327 17.6768C15.5327 18.2454 15.7586 18.7908 16.1607 19.1929L21.9679 25L16.1607 30.8071C15.9616 31.0062 15.8037 31.2426 15.6959 31.5027C15.5882 31.7629 15.5327 32.0417 15.5327 32.3232C15.5327 32.6048 15.5882 32.8836 15.6959 33.1437C15.8037 33.4038 15.9616 33.6402 16.1607 33.8393C16.3598 34.0384 16.5962 34.1963 16.8563 34.3041C17.1164 34.4118 17.3952 34.4673 17.6768 34.4673C17.9583 34.4673 18.2372 34.4118 18.4973 34.3041C18.7574 34.1963 18.9938 34.0384 19.1929 33.8393L25 28.0321L30.8071 33.8393C31.0062 34.0384 31.2426 34.1963 31.5027 34.3041C31.7629 34.4118 32.0417 34.4673 32.3232 34.4673C32.6048 34.4673 32.8836 34.4118 33.1437 34.3041C33.4038 34.1963 33.6402 34.0384 33.8393 33.8393C34.0384 33.6402 34.1963 33.4038 34.3041 33.1437C34.4118 32.8836 34.4673 32.6048 34.4673 32.3232C34.4673 32.0417 34.4118 31.7629 34.3041 31.5027C34.1963 31.2426 34.0384 31.0062 33.8393 30.8071L28.0321 25L33.8393 19.1929C34.0384 18.9938 34.1963 18.7574 34.3041 18.4973C34.4118 18.2372 34.4673 17.9583 34.4673 17.6768C34.4673 17.3952 34.4118 17.1164 34.3041 16.8563C34.1963 16.5962 34.0384 16.3598 33.8393 16.1607C33.6402 15.9616 33.4038 15.8037 33.1437 15.6959C32.8836 15.5882 32.6048 15.5327 32.3232 15.5327C32.0417 15.5327 31.7629 15.5882 31.5027 15.6959C31.2426 15.8037 31.0062 15.9616 30.8071 16.1607L25 21.9679Z" fill="#EE002D"/>
</svg>
