<svg width="60" height="60" viewBox="0 0 60 60" fill="none" xmlns="http://www.w3.org/2000/svg">
<path d="M0.18399 56.6157C0.71485 55.0465 1.85626 54.443 3.45118 54.5321C3.93399 54.559 4.42383 54.5016 4.9043 54.5461C5.35547 54.5895 5.43633 54.429 5.43516 54.0047C5.41876 49.7977 5.46329 45.5895 5.40352 41.3825C5.3836 39.9446 6.20626 38.7786 7.92774 38.843C9.16641 38.8899 10.4109 38.7622 11.6461 38.9051C12.7348 39.0317 13.4426 39.8508 13.4648 40.9512C13.4801 41.6543 13.4648 42.3481 13.4731 43.0454C13.4848 43.6465 13.2094 43.9887 12.6164 44.0778C12.0234 44.1668 11.6461 43.8434 11.5617 43.1731C11.4984 42.6352 11.5477 42.0915 11.5336 41.5512C11.5172 40.9161 11.4539 40.8481 10.8305 40.8364C10.3617 40.827 9.90352 40.8364 9.43946 40.8364C8.93672 40.8692 8.43282 40.8446 7.93008 40.8528C7.54922 40.8598 7.36055 41.0368 7.35352 41.4176C7.35352 41.5723 7.34415 41.727 7.34415 41.8864C7.34415 45.7356 7.34415 49.5848 7.34415 53.434C7.34415 54.3305 7.36055 54.3411 8.24766 54.3469C8.6543 54.3469 9.05977 54.3317 9.46641 54.3586C9.9293 54.3387 10.3934 54.3586 10.8563 54.3481C11.4527 54.3352 11.5172 54.2801 11.5195 53.6731C11.5289 51.7231 11.5195 49.7719 11.5195 47.8219C11.5022 47.5515 11.5263 47.28 11.591 47.0168C11.7352 46.5481 12.0598 46.3442 12.5906 46.3676C13.2211 46.5024 13.4719 46.8844 13.4648 47.5395C13.4414 49.6934 13.4719 51.8473 13.4438 54C13.4367 54.4747 13.5832 54.5684 14.0227 54.5614C15.5555 54.5356 17.0883 54.5356 18.6211 54.5614C19.0066 54.5614 19.1004 54.4536 19.098 54.0774C19.0816 51.6528 19.091 49.227 19.0887 46.8024C19.0887 46.0372 19.2516 45.3469 19.8855 44.8348C20.3156 44.4833 20.8102 44.3661 21.3445 44.3661C22.5281 44.3661 23.7117 44.3485 24.8953 44.3661C26.3672 44.3813 27.1875 45.2344 27.1875 46.7063C27.1875 49.1508 27.1992 51.5954 27.1781 54.0399C27.1781 54.45 27.2813 54.5532 27.6879 54.5461C29.2207 54.5204 30.7547 54.5145 32.2863 54.5461C32.7551 54.5567 32.8078 54.3973 32.8066 53.9918C32.7949 46.1536 32.7922 38.3153 32.7984 30.477C32.7984 28.7391 33.5766 27.9551 35.3016 27.9516C36.4078 27.9516 37.5141 27.9422 38.6203 27.9516C39.9984 27.9669 40.8164 28.7637 40.8586 30.1418C40.8832 30.9165 40.8645 31.6934 40.8645 32.4692C40.8645 39.609 40.8598 46.7493 40.8504 53.8899C40.8504 54.443 41.0121 54.5543 41.5242 54.5426C42.9984 54.5082 44.473 54.5082 45.948 54.5426C46.4168 54.552 46.5187 54.4184 46.5187 53.9661C46.5047 43.3333 46.5012 32.7008 46.5082 22.0688C46.5082 21.2157 46.493 20.3614 46.5293 19.5083C46.575 18.3833 47.4117 17.5336 48.5367 17.5032C49.8551 17.4669 51.1758 17.4692 52.4941 17.5032C53.6766 17.5313 54.5543 18.4559 54.5613 19.6512C54.573 21.961 54.5613 24.2696 54.5695 26.5782C54.5695 27.1969 54.3023 27.5614 53.7012 27.6879C53.0883 27.7313 52.7848 27.5122 52.6793 26.9403C52.6442 26.6915 52.6324 26.4401 52.6441 26.1891C52.6441 24.2555 52.6441 22.3219 52.6441 20.3907C52.6441 20.0661 52.6828 19.7192 52.3441 19.5071C52.2069 19.4326 52.0526 19.395 51.8965 19.3981C50.9848 19.384 50.0742 19.4286 49.1625 19.4239C48.7113 19.4239 48.4746 19.6196 48.477 20.0848C48.477 20.2794 48.4699 20.4727 48.4699 20.6708V53.2489C48.4699 54.3329 48.4699 54.3317 49.5598 54.334C49.8691 54.334 50.1797 54.3235 50.4902 54.3469C51.0141 54.3165 51.5379 54.334 52.0605 54.334C52.4426 54.334 52.6465 54.1805 52.6359 53.7832C52.6359 53.5711 52.6359 53.3567 52.6359 53.1434C52.6359 45.9856 52.6359 38.8274 52.6359 31.6688C52.6163 31.3394 52.6332 31.0089 52.6863 30.6833C52.8035 30.1372 53.1117 29.9145 53.6684 29.9497C54.4477 30.2251 54.5637 30.3856 54.5637 31.2176C54.5637 38.7958 54.5598 46.3739 54.552 53.952C54.552 54.4207 54.6469 54.5719 55.1379 54.5567C55.9477 54.5297 56.7668 54.4629 57.573 54.6024C58.7965 54.8122 59.6918 55.7344 59.7996 56.8665C59.9168 58.1473 59.2348 59.202 57.9961 59.6438C57.9258 59.6696 57.8449 59.6684 57.8273 59.761H49.1016C48.6445 59.6215 48.3785 59.3379 48.4043 58.834C48.6633 58.043 48.9059 57.852 49.7484 57.8473C51.9305 57.8368 54.1125 57.8473 56.2957 57.8473C56.5078 57.8473 56.7211 57.8473 56.9332 57.8473C57.3445 57.8286 57.7395 57.7301 57.8109 57.2614C57.8789 56.8102 57.5484 56.6168 57.1629 56.5114C56.9191 56.42 56.6648 56.4399 56.4141 56.4399C40.3102 56.4399 24.2063 56.4211 8.10235 56.468C6.42305 56.468 4.73555 56.5559 3.0504 56.5852C2.91434 56.5822 2.77868 56.6008 2.64844 56.6403C2.52545 56.6751 2.41695 56.7486 2.33905 56.8499C2.26115 56.9512 2.21801 57.075 2.21602 57.2028C2.20782 57.4594 2.36485 57.6352 2.59571 57.7395C2.82657 57.8438 3.0879 57.8332 3.33985 57.8356C4.69688 57.8473 6.05508 57.818 7.41329 57.852C7.78125 57.8168 8.1504 57.8368 8.51836 57.8368H44.4141C44.6672 57.8368 44.9191 57.8297 45.1711 57.8438C45.8484 57.8801 46.1191 58.0993 46.3312 58.7672C46.3769 59.2536 46.1461 59.5735 45.7172 59.7715H2.16329C1.05938 59.5473 0.399615 58.8836 0.18399 57.7805V56.6157Z" fill="#484E55"/>
<path d="M52.5094 19.3359C52.9172 19.4437 52.8035 19.7848 52.8047 20.0496C52.8141 22.2012 52.8047 24.3527 52.8047 26.5043C52.8047 27.2965 52.9523 27.4828 53.6965 27.6867L53.6719 29.9496C52.8844 30.2578 52.8117 30.3598 52.8117 31.2387C52.8117 38.7785 52.816 46.3176 52.8246 53.8559C52.8246 54.4254 52.6793 54.6024 52.1215 54.5461C51.5848 54.4922 51.0387 54.5191 50.4961 54.5098C50.2313 54.1922 50.3098 53.8066 50.3098 53.4481C50.3051 46.8738 50.3051 40.2996 50.3098 33.7254V20.6977C50.3098 20.4633 50.3016 20.2289 50.318 19.9945C50.3602 19.4086 50.4773 19.2914 51.0656 19.2914C51.5438 19.3078 52.0312 19.2434 52.5094 19.3359Z" fill="#83CFD6"/>
<path d="M9.49218 37.1543C8.36718 37.1543 7.24335 37.1613 6.11952 37.1543C4.89491 37.1449 4.17304 36.4266 4.16015 35.2031C4.1496 34.3125 4.14726 33.4207 4.16015 32.5289C4.18359 30.8578 5.25819 29.7621 6.92343 29.7422C8.60937 29.7227 10.2957 29.7227 11.9824 29.7422C13.6488 29.7633 14.7211 30.8684 14.7305 32.5359C14.7359 33.4664 14.7359 34.3969 14.7305 35.3273C14.7211 36.4395 14.0344 37.1391 12.9223 37.1531C11.7809 37.166 10.6371 37.1543 9.49218 37.1543Z" fill="#484E55"/>
<path d="M23.1504 42.6351C22.0254 42.6351 20.9016 42.6409 19.7777 42.6351C18.5789 42.628 17.8875 41.9202 17.8863 40.712C17.8863 39.8214 17.8863 38.9304 17.8863 38.039C17.8863 36.4405 18.7219 35.3741 20.3098 35.2769C22.1857 35.1642 24.0666 35.1611 25.943 35.2675C27.5098 35.3542 28.3594 36.3609 28.4203 37.9429C28.4578 38.9109 28.4531 39.8812 28.4203 40.8491C28.3816 42.021 27.7055 42.6327 26.5219 42.6362C25.398 42.6374 24.2742 42.6351 23.1504 42.6351Z" fill="#484E55"/>
<path d="M50.5723 15.7805C49.4484 15.7805 48.3234 15.791 47.1996 15.7805C45.9105 15.7652 45.2602 15.0926 45.2566 13.7883C45.2566 12.8578 45.2449 11.9274 45.2566 10.9981C45.2801 9.51798 46.398 8.41994 47.8863 8.40822C49.5914 8.39884 51.2965 8.40822 53.0016 8.40822C54.6867 8.40822 55.7672 9.43947 55.8141 11.1223C55.841 12.0703 55.834 13.0207 55.8141 13.9699C55.7906 15.1078 55.1367 15.7582 53.9953 15.7758C52.8539 15.7934 51.7148 15.7793 50.5723 15.7805Z" fill="#484E55"/>
<path d="M36.859 26.2219C35.7152 26.2219 34.5715 26.2219 33.4277 26.2219C32.359 26.2161 31.6324 25.6208 31.5762 24.5555C31.5129 23.3837 31.459 22.193 31.6231 21.0176C31.7871 19.8422 32.6883 18.9563 33.873 18.8907C35.8636 18.776 37.8591 18.776 39.8496 18.8907C41.0777 18.9645 42.0633 20.052 42.0949 21.2907C42.1219 22.3946 42.1172 23.4997 42.0949 24.6047C42.0903 25.0356 41.915 25.4471 41.6074 25.7489C41.2999 26.0508 40.8852 26.2183 40.4543 26.2149C39.2578 26.2348 38.0602 26.2208 36.859 26.2219Z" fill="#484E55"/>
<path d="M9.50039 40.6641C10.0617 40.6559 10.623 40.6547 11.1844 40.6359C11.5945 40.6219 11.727 40.8258 11.7176 41.2078C11.7035 41.8078 11.707 42.409 11.7176 43.009C11.727 43.6711 11.952 43.9266 12.6176 44.073L12.607 46.3535C11.8277 46.6301 11.7164 46.7871 11.7152 47.6238C11.7152 49.752 11.7012 51.8801 11.7258 54.0082C11.7258 54.4453 11.618 54.5824 11.182 54.5473C10.6242 54.5027 10.0617 54.5215 9.50156 54.5121C9.30117 54.2895 9.31523 54.0117 9.31523 53.7422C9.31523 49.6398 9.31523 45.5383 9.31523 41.4375C9.31523 41.1691 9.29766 40.8902 9.50039 40.6641Z" fill="#83CFD6"/>
<path d="M54.2414 3.84483C54.242 4.83263 53.8514 5.78047 53.155 6.48103C52.4587 7.18159 51.5132 7.57785 50.5254 7.58311C48.4992 7.58311 46.7601 5.83116 46.7941 3.83311C46.8117 2.85564 47.2093 1.92345 47.9025 1.23413C48.5958 0.544811 49.5302 0.152565 50.5078 0.140537C50.9969 0.136044 51.482 0.228575 51.9351 0.412779C52.3882 0.596982 52.8003 0.869201 53.1475 1.21369C53.4947 1.55817 53.7701 1.96809 53.9579 2.41972C54.1457 2.87135 54.242 3.35573 54.2414 3.84483Z" fill="#484E55"/>
<path d="M23.1141 34.4004C21.0633 34.384 19.3711 32.6683 19.4121 30.6504C19.4531 28.6324 21.1547 26.9531 23.148 26.9531C23.6417 26.9589 24.1294 27.0622 24.583 27.2569C25.0367 27.4516 25.4475 27.734 25.7918 28.0879C26.136 28.4417 26.4071 28.8601 26.5893 29.3189C26.7715 29.7778 26.8613 30.2681 26.8535 30.7617C26.8384 31.7395 26.4363 32.6715 25.7355 33.3535C25.0346 34.0355 24.0919 34.412 23.1141 34.4004Z" fill="#484E55"/>
<path d="M5.74218 25.1355C5.81014 23.0847 7.49179 21.4019 9.48163 21.4781C11.7 21.5636 13.1965 23.1914 13.1695 25.2445C13.1367 27.6691 11.0683 29.0308 9.22733 28.9148C7.29491 28.7929 5.67421 27.089 5.74218 25.1355Z" fill="#484E55"/>
<path d="M33.1289 14.2968C33.1264 13.3093 33.5163 12.3612 34.2127 11.6611C34.9091 10.9609 35.8551 10.566 36.8426 10.5632C38.8781 10.5632 40.5984 12.2906 40.5762 14.305C40.5578 15.2833 40.1608 16.2163 39.4687 16.9078C38.7765 17.5993 37.8431 17.9954 36.8649 18.0128C34.8363 18.0468 33.1324 16.3511 33.1289 14.2968Z" fill="#484E55"/>
<path d="M48.5156 58.9453C47.7434 58.8972 46.9711 58.8539 46.2012 58.971C46.1192 58.2304 45.8625 58.0183 45.0434 58.0183H8.22306C7.95118 58.0183 7.68048 58.0078 7.40274 58.0019C6.98556 57.6339 7.07579 57.1605 7.15665 56.7035C7.17102 56.594 7.22673 56.4941 7.31236 56.4244C7.398 56.3547 7.50706 56.3203 7.6172 56.3285C7.77189 56.3285 7.92774 56.3285 8.08595 56.3285C24.2672 56.3285 40.4488 56.3285 56.6309 56.3285C56.8418 56.3285 57.0574 56.2851 57.2637 56.3718C57.8063 56.3859 58.016 56.7457 58.0453 57.2062C58.0746 57.6667 57.6446 58.0078 57.0809 58.0078C55.3723 58.0183 53.6649 58.0078 51.9574 58.0078H49.7449C48.9082 58.0136 48.757 58.125 48.5156 58.9453Z" fill="#B0B0B0"/>
<path d="M52.5094 19.336C52.0406 19.336 51.5719 19.3724 51.1125 19.3431C50.6144 19.3103 50.4363 19.5235 50.4937 19.9923C50.4961 20.0313 50.4961 20.0705 50.4937 20.1095V54.5145C49.8738 54.5227 49.2539 54.5204 48.6351 54.5438C48.3515 54.5544 48.2461 54.4477 48.2765 54.1747C48.2818 54.0779 48.2818 53.9809 48.2765 53.8841V20.1446C48.2765 19.2845 48.2988 19.2646 49.1555 19.2622C50.0859 19.2622 51.0176 19.2552 51.948 19.2622C52.1367 19.261 52.3406 19.1966 52.5094 19.336Z" fill="#459096"/>
<path d="M38.7196 54.5203C37.6088 54.5285 36.4959 54.5203 35.3872 54.5531C34.7561 54.5707 34.5457 54.4617 34.5457 54.0984C34.5857 52.9758 34.5604 51.8519 34.5604 50.7281V30.6164C34.5604 29.727 34.5815 29.7141 36.2056 29.7176C37.0471 29.7176 37.8739 29.7293 38.707 29.7352C39.0878 29.9555 39.0394 30.2367 39.0394 30.5039C39.0478 38.2523 39.0478 46.0004 39.0394 53.748C39.0499 54.0234 39.0752 54.2953 38.7196 54.5203Z" fill="#6FBEC4"/>
<path opacity="0.5" d="M36.8707 54.5202V29.7351C37.4332 29.7292 37.9957 29.7351 38.5582 29.7128C38.9203 29.7011 39.1101 29.8417 39.0937 30.2191C39.0937 30.3363 39.0937 30.4535 39.0937 30.5706C39.0937 38.3495 39.098 46.1288 39.1066 53.9085C39.1066 54.4488 38.9625 54.6117 38.4398 54.5601C37.9172 54.5085 37.3945 54.5296 36.8707 54.5202Z" fill="white"/>
<path d="M9.50039 40.6641V54.5169C8.86054 54.5251 8.2207 54.5239 7.58203 54.5462C7.29375 54.5555 7.17187 54.484 7.17304 54.163C7.18242 49.8544 7.18242 45.5461 7.17304 41.2383C7.17304 40.8317 7.31836 40.6231 7.75312 40.6407C8.33671 40.6641 8.91914 40.6641 9.50039 40.6641Z" fill="#6CC8CF"/>
<path d="M23.243 46.1473C23.7656 46.1414 24.2883 46.1555 24.8086 46.1215C25.3289 46.0875 25.4203 46.3899 25.4191 46.8082C25.4191 48.4926 25.4191 50.1766 25.4191 51.8602C25.4191 52.5961 25.4062 53.332 25.4191 54.0668C25.4273 54.3973 25.3629 54.5695 24.9785 54.5473C24.3609 54.5133 23.741 54.5238 23.1223 54.5145C22.9641 54.3469 22.9418 54.1348 22.9406 53.9203C22.9324 51.5449 22.9277 49.1695 22.9406 46.7942C22.95 46.5422 22.9687 46.2891 23.243 46.1473Z" fill="#459096"/>
<path d="M23.243 46.1473C23.1024 46.3536 23.1258 46.5879 23.1258 46.8188C23.1258 49.3844 23.1258 51.9497 23.1258 54.5145C22.507 54.5216 21.8871 54.5216 21.2684 54.5403C20.9988 54.5485 20.8934 54.4583 20.8945 54.177C20.9024 51.6583 20.9024 49.1403 20.8945 46.6231C20.8945 46.2387 21.0832 46.1169 21.4383 46.1262C22.043 46.1426 22.643 46.1415 23.243 46.1473Z" fill="#83CFD6"/>
<path d="M57.2637 56.3671C56.9918 56.3671 56.7211 56.3812 56.4492 56.3812H8.54649C7.16017 56.3812 7.00548 56.6003 7.4086 57.9902C5.99376 58.0019 4.57891 58.0078 3.16407 58.0078C2.3836 58.0078 1.92188 57.6878 1.93829 57.1628C1.9547 56.6378 2.38595 56.3707 3.1336 56.3613C15.7899 56.1925 28.4543 56.3039 41.1153 56.2757C46.2715 56.264 51.4278 56.2757 56.5899 56.2757C56.8149 56.2816 57.0563 56.2113 57.2637 56.3671Z" fill="#747474"/>
<path d="M12.8789 35.3086C12.7078 35.4492 12.5063 35.3801 12.3199 35.3813C10.4016 35.3813 8.48204 35.3578 6.56368 35.3906C6.02696 35.4 5.91212 35.2348 5.94376 34.7356C5.99063 34.002 5.94376 33.2625 5.96016 32.5266C5.97657 31.7906 6.22149 31.5469 6.94688 31.541C7.83751 31.5328 8.72813 31.5563 9.61876 31.5656C9.75938 32.3742 9.64337 33.1887 9.67852 33.9996C9.68673 34.193 9.68907 34.3887 9.67852 34.5856C9.65977 34.9875 9.85899 35.1352 10.2434 35.1317C10.9031 35.1258 11.5641 35.1223 12.2238 35.1317C12.4559 35.1352 12.6973 35.1176 12.8789 35.3086Z" fill="#6CC8CF"/>
<path d="M12.8789 35.3087C11.9308 35.3087 10.9816 35.2888 10.0336 35.3087C9.64804 35.3169 9.47694 35.2232 9.491 34.7966C9.5203 33.9071 9.50389 33.0165 9.49804 32.1259C9.4904 31.9328 9.53066 31.7407 9.61522 31.5669C10.4566 31.5587 11.298 31.5364 12.1383 31.5493C12.5625 31.5564 12.8683 31.7544 12.893 32.2325C12.9629 33.2565 12.9578 34.2843 12.8777 35.3075L12.8789 35.3087Z" fill="#83CFD6"/>
<path opacity="0.5" d="M9.50039 40.6641C10.0617 40.6559 10.623 40.6547 11.1844 40.6359C11.5945 40.6219 11.727 40.8258 11.7176 41.2078C11.7035 41.8078 11.707 42.409 11.7176 43.009C11.727 43.6711 11.952 43.9266 12.6176 44.073L12.607 46.3535C11.8277 46.6301 11.7164 46.7871 11.7152 47.6238C11.7152 49.752 11.7012 51.8801 11.7258 54.0082C11.7258 54.4453 11.618 54.5824 11.182 54.5473C10.6242 54.5027 10.0617 54.5215 9.50156 54.5121C9.30117 54.2895 9.31523 54.0117 9.31523 53.7422C9.31523 49.6398 9.31523 45.5383 9.31523 41.4375C9.31523 41.1691 9.29766 40.8902 9.50039 40.6641Z" fill="white"/>
<path opacity="0.5" d="M12.8789 35.3087C11.9308 35.3087 10.9816 35.2888 10.0336 35.3087C9.64804 35.3169 9.47694 35.2232 9.491 34.7966C9.5203 33.9071 9.50389 33.0165 9.49804 32.1259C9.4904 31.9328 9.53066 31.7407 9.61522 31.5669C10.4566 31.5587 11.298 31.5364 12.1383 31.5493C12.5625 31.5564 12.8683 31.7544 12.893 32.2325C12.9629 33.2565 12.9578 34.2843 12.8777 35.3075L12.8789 35.3087Z" fill="white"/>
<path d="M12.8813 35.3062C12.8859 34.282 12.891 33.257 12.8965 32.2312C13.0078 33.2566 13.05 34.282 12.8813 35.3062Z" fill="#F2A307"/>
<path d="M26.6016 40.7812C26.4844 40.9769 26.2852 40.8832 26.1328 40.8844C24.1348 40.8844 22.1367 40.8703 20.1399 40.8844C19.7203 40.8844 19.6149 40.7519 19.6289 40.3558C19.657 39.5801 19.6289 38.8043 19.6406 38.0285C19.6512 37.3254 19.9383 37.0383 20.632 37.0348C21.5039 37.0289 22.3758 37.0488 23.2477 37.057C23.3988 37.2445 23.3426 37.4601 23.332 37.6699C23.2887 38.4633 23.325 39.2566 23.3098 40.0488C23.3016 40.4426 23.4692 40.6078 23.8629 40.6031C24.5199 40.5961 25.1778 40.5961 25.8363 40.6031C26.0988 40.6066 26.3789 40.5691 26.6016 40.7812Z" fill="#83CFD6"/>
<path d="M26.6015 40.7812C25.5926 40.7812 24.5824 40.773 23.5734 40.7812C23.2629 40.7812 23.1047 40.7038 23.1223 40.3581C23.175 39.2589 23.0203 38.1515 23.2394 37.0569C24.0926 37.0476 24.9445 37.0276 25.7976 37.0347C26.2957 37.0347 26.618 37.3007 26.618 37.8151C26.6344 38.8007 26.6121 39.7886 26.6015 40.7812Z" fill="#92B624"/>
<path d="M26.6015 40.7812C25.5926 40.7812 24.5824 40.773 23.5734 40.7812C23.2629 40.7812 23.1047 40.7038 23.1223 40.3581C23.175 39.2589 23.0203 38.1515 23.2394 37.0569C24.0926 37.0476 24.9445 37.0276 25.7976 37.0347C26.2957 37.0347 26.618 37.3007 26.618 37.8151C26.6344 38.8007 26.6121 39.7886 26.6015 40.7812Z" fill="#459096"/>
<path d="M50.4949 13.9827C49.4695 13.9898 48.4441 13.9898 47.4199 14.0085C47.1387 14.0085 46.9992 13.9534 47.0074 13.6288C47.0273 12.7968 46.9969 11.9648 47.0203 11.1339C47.0379 10.4812 47.3473 10.173 47.9988 10.1612C48.907 10.146 49.8164 10.1683 50.7246 10.1741C50.6531 11.346 50.6918 12.5097 50.6402 13.6769C50.6316 13.7934 50.5798 13.9024 50.4949 13.9827Z" fill="#459096"/>
<path d="M50.4949 13.9828C50.5524 12.8015 50.3637 11.6121 50.618 10.439C50.646 10.3479 50.6817 10.2593 50.7246 10.1742C51.4992 10.1742 52.2738 10.1472 53.0473 10.159C53.7117 10.1695 54.0059 10.4613 54.0176 11.1176C54.0328 11.9496 54.0106 12.7828 54.0281 13.6148C54.0281 13.9195 53.9332 14.0168 53.6297 14.0097C52.5856 13.9886 51.5391 13.9898 50.4949 13.9828Z" fill="#83CFD6"/>
<path d="M40.2609 21.184C40.4871 22.2153 40.3113 23.2594 40.3512 24.2977C40.3594 24.4981 40.1836 24.4723 40.0535 24.4723C37.9219 24.4723 35.7891 24.4665 33.6574 24.4723C33.3856 24.4723 33.3387 24.3481 33.341 24.1208C33.3492 23.229 33.341 22.3372 33.3527 21.4465C33.3621 20.911 33.6656 20.6262 34.1988 20.6262C35.1281 20.6262 36.0586 20.6379 36.9879 20.6461C37.1484 21.3692 37.0254 22.1004 37.0406 22.827C37.0734 24.361 36.9082 24.17 38.4188 24.1852C38.7856 24.1852 39.1524 24.177 39.5192 24.1852C39.9176 24.1958 40.0711 24.0071 40.0676 23.6239C40.0676 23.045 40.0594 22.4649 40.0676 21.886C40.0781 21.6375 40.043 21.375 40.2609 21.184Z" fill="#6FBEC4"/>
<path d="M40.2609 21.1839C40.2609 22.0945 40.2422 23.0062 40.2516 23.9179C40.2516 24.2355 40.1566 24.3714 39.8203 24.3644C38.9672 24.3492 38.1141 24.3574 37.2598 24.3644C37.0465 24.3644 36.8601 24.3375 36.8719 24.0621C36.9234 22.9242 36.7394 21.7781 36.9891 20.6472C37.8305 20.6402 38.6719 20.6285 39.5133 20.6285C39.893 20.625 40.1684 20.7867 40.2609 21.1839Z" fill="#6FBEC4"/>
<path opacity="0.5" d="M40.2609 21.1839C40.2609 22.0945 40.2422 23.0062 40.2516 23.9179C40.2516 24.2355 40.1566 24.3714 39.8203 24.3644C38.9672 24.3492 38.1141 24.3574 37.2598 24.3644C37.0465 24.3644 36.8601 24.3375 36.8719 24.0621C36.9234 22.9242 36.7394 21.7781 36.9891 20.6472C37.8305 20.6402 38.6719 20.6285 39.5133 20.6285C39.893 20.625 40.1684 20.7867 40.2609 21.1839Z" fill="white"/>
<path d="M52.0313 5.03901C51.4313 5.75972 50.625 5.98589 49.8153 5.66128C49.0055 5.33667 48.5414 4.59253 48.6012 3.68784C48.6598 2.81597 49.2024 2.19839 50.1246 1.95581C50.2746 2.05425 50.2758 2.21479 50.2899 2.3648C50.3895 3.44878 50.8395 4.31245 51.8321 4.8398C51.9187 4.88225 51.9888 4.95234 52.0313 5.03901Z" fill="#EAE0DB"/>
<path d="M52.0313 5.03912C50.9168 4.67115 50.1996 3.67623 50.1422 2.41646C50.1352 2.26295 50.1293 2.10943 50.1234 1.95591C50.5189 1.86579 50.9326 1.90268 51.3059 2.06131C51.6791 2.21995 51.9928 2.49227 52.2023 2.83951C52.6348 3.55435 52.5727 4.3524 52.0313 5.03912Z" fill="#F7F2F1"/>
<path d="M24.6234 31.9241C24.0082 32.6202 23.1973 32.8276 22.3898 32.4937C22.0149 32.3323 21.6993 32.0584 21.4867 31.7099C21.274 31.3615 21.1748 30.9556 21.2027 30.5483C21.2906 29.6272 21.8379 29.0249 22.7789 28.8022C22.8787 28.9209 22.9302 29.0728 22.9231 29.2276C23.0027 30.2683 23.4023 31.1179 24.3633 31.6323C24.4259 31.6581 24.4819 31.6977 24.527 31.7482C24.5721 31.7988 24.6051 31.8589 24.6234 31.9241Z" fill="#EAE0DB"/>
<path d="M24.6234 31.9241C23.2371 31.3382 22.7238 30.2378 22.7789 28.8023C23.7246 28.6851 24.4336 29.0038 24.8473 29.7292C25.2609 30.4546 25.1812 31.2152 24.6234 31.9241Z" fill="#F7F2F1"/>
<path d="M11.0156 26.3402C10.3816 27.1289 9.51795 27.3703 8.67186 26.9953C8.283 26.8202 7.96117 26.5241 7.75441 26.1511C7.54765 25.7782 7.46703 25.3483 7.5246 24.9258C7.58086 24.5163 7.77084 24.1369 8.065 23.8466C8.35915 23.5562 8.741 23.3712 9.15116 23.3203C9.1959 23.3576 9.22515 23.4103 9.23319 23.468C9.17108 24.8285 9.81092 25.7566 11.0156 26.3402Z" fill="#EAE0DB"/>
<path d="M11.0156 26.3402C10.2328 26.2793 9.35977 25.3898 9.1711 24.4429C9.0961 24.0715 9.04219 23.6941 9.15586 23.3179C9.98906 23.1469 10.6242 23.4761 11.0918 24.1383C11.5359 24.7769 11.4844 25.6336 11.0156 26.3402Z" fill="#F7F2F1"/>
<path d="M38.3016 15.5308C37.7051 16.2187 36.8766 16.4249 36.075 16.0839C35.6927 15.9171 35.3728 15.634 35.1607 15.2748C34.9487 14.9157 34.8552 14.4988 34.8938 14.0835C34.9758 13.2351 35.584 12.6011 36.525 12.3855C36.5815 12.4511 36.6235 12.528 36.6481 12.611C36.6727 12.694 36.6795 12.7813 36.668 12.8671C36.6457 13.9113 37.166 14.646 37.9922 15.2109C38.1164 15.2941 38.2535 15.3679 38.3016 15.5308Z" fill="#EAE0DB"/>
<path d="M38.3016 15.5309C36.9563 14.9075 36.3797 13.8493 36.5215 12.3856C37.4332 12.2438 38.1129 12.5977 38.5605 13.3829C38.9496 14.0684 38.8324 14.9051 38.3016 15.5309Z" fill="#F7F2F1"/>
</svg>
