<svg width="60" height="60" viewBox="0 0 60 60" fill="none" xmlns="http://www.w3.org/2000/svg">
<g clip-path="url(#clip0_1342_6265)">
<path d="M0.00819702 44.4141C0.439447 43.7367 0.905854 43.125 1.82929 43.125C2.92968 43.125 3.74999 43.9066 3.74999 45.0164C3.75468 48.082 3.75468 51.1469 3.74999 54.2109C3.74999 55.6172 4.37578 56.2418 5.78086 56.243C8.76797 56.243 11.7574 56.277 14.741 56.2266C15.9609 56.2066 16.6477 56.9367 16.8258 57.648C16.9463 58.1064 16.8888 58.5933 16.6649 59.011C16.441 59.4286 16.0672 59.746 15.6187 59.8992C15.5977 59.9074 15.5941 59.9602 15.5824 59.9918H4.33242C2.49257 59.6766 1.21406 58.6289 0.377338 56.9859C0.161713 56.5629 0.13476 56.0977 -0.00234985 55.657L0.00819702 44.4141Z" fill="#484E55"/>
<path d="M15.5859 0.0081543C16.2668 0.438233 16.875 0.914014 16.875 1.83159C16.875 2.92847 16.0828 3.75347 14.9754 3.75581C11.9105 3.7605 8.8461 3.7605 5.78203 3.75581C4.37579 3.75581 3.75235 4.38042 3.75118 5.78667C3.75118 8.77261 3.71719 11.7632 3.76758 14.7457C3.7875 15.9597 3.04922 16.6558 2.3461 16.8316C1.88895 16.9492 1.40431 16.8906 0.988366 16.6674C0.572427 16.4442 0.255604 16.0728 0.100787 15.6269C0.0937561 15.6058 0.0398498 15.6023 0.00820923 15.5906V4.45777C0.428912 1.9769 1.90313 0.521436 4.34414 0.00463867L15.5859 0.0081543Z" fill="#484E55"/>
<path d="M44.4141 59.9918C43.7484 59.5524 43.125 59.0965 43.125 58.1696C43.125 57.0703 43.9008 56.25 45.0141 56.25C48.0797 56.2453 51.1449 56.2453 54.2098 56.25C55.616 56.25 56.2418 55.6231 56.2418 54.218C56.2418 51.2121 56.2699 48.2039 56.2266 45.1946C56.2137 44.2184 56.7797 43.4039 57.6457 43.1649C58.5469 42.9164 59.3555 43.3453 59.8723 44.3215C59.8934 44.3614 59.9484 44.3836 59.9895 44.4141V55.5469C59.8078 57.7442 57.7512 59.877 55.4191 60L44.4141 59.9918Z" fill="#484E55"/>
<path d="M59.9918 15.586C59.5559 16.2587 59.0918 16.8751 58.1695 16.8751C57.0715 16.8751 56.2465 16.0841 56.2441 14.9767C56.2395 11.9118 56.2395 8.84697 56.2441 5.78213C56.2441 4.37588 55.6184 3.75127 54.2133 3.75127C51.2262 3.75127 48.2367 3.71728 45.2531 3.76767C44.0871 3.78642 43.3465 3.07861 43.1672 2.34502C43.0485 1.88814 43.1064 1.4033 43.3295 0.987301C43.5526 0.571301 43.9244 0.254758 44.3707 0.100879C44.3918 0.0938476 44.3977 0.0399414 44.4094 0.00830078H55.425C57.3996 0.204004 58.7238 1.29736 59.6145 3.01416C59.8734 3.51103 59.8781 4.05478 59.9941 4.57744L59.9918 15.586Z" fill="#484E55"/>
<path d="M28.125 17.8361C28.125 19.4943 28.125 21.1536 28.125 22.8118C28.1127 24.219 27.5475 25.565 26.5515 26.559C25.5554 27.5531 24.2084 28.1156 22.8012 28.1251C19.484 28.1321 16.1664 28.1321 12.8484 28.1251C11.4312 28.1205 10.0735 27.5546 9.07248 26.5514C8.07144 25.5481 7.50857 24.1892 7.50703 22.772C7.50234 19.4743 7.50234 16.1767 7.50703 12.879C7.50501 12.172 7.64296 11.4716 7.91294 10.8182C8.18292 10.1648 8.57959 9.57126 9.08006 9.07188C9.58053 8.5725 10.1749 8.17713 10.8289 7.90858C11.4829 7.64002 12.1836 7.50359 12.8906 7.50715C16.1719 7.50715 19.4504 7.50715 22.7262 7.50715C25.7519 7.50715 28.1168 9.88605 28.1262 12.9189C28.1254 14.5587 28.125 16.1978 28.125 17.8361Z" fill="#484E55"/>
<path d="M31.875 17.781C31.875 16.1228 31.875 14.4646 31.875 12.8052C31.8844 9.92705 34.2844 7.51533 37.1543 7.5083C40.5137 7.50049 43.8699 7.50049 47.223 7.5083C50.0648 7.51533 52.4824 9.92236 52.4906 12.756C52.5008 16.1325 52.5008 19.5087 52.4906 22.8845C52.4824 25.6864 50.0672 28.1122 47.2723 28.1228C43.8777 28.1345 40.4824 28.1345 37.0863 28.1228C34.2961 28.1122 31.8879 25.6782 31.8762 22.8751C31.868 21.1771 31.875 19.479 31.875 17.781Z" fill="#484E55"/>
<path d="M28.125 42.2108C28.125 43.869 28.125 45.5284 28.125 47.1866C28.1106 48.5935 27.5437 49.9383 26.5466 50.931C25.5496 51.9237 24.2022 52.4846 22.7953 52.4929C19.4781 52.4983 16.1609 52.4983 12.8437 52.4929C11.4262 52.4867 10.0688 51.9192 9.06868 50.9147C8.06852 49.9101 7.50701 48.5503 7.50703 47.1327C7.50234 43.8351 7.50234 40.5374 7.50703 37.2397C7.50593 36.5328 7.64481 35.8326 7.91566 35.1796C8.18651 34.5266 8.58396 33.9337 9.0851 33.4351C9.58624 32.9364 10.1811 32.5419 10.8355 32.2744C11.4899 32.0068 12.1907 31.8714 12.8976 31.8761C16.1789 31.8714 19.457 31.8714 22.732 31.8761C25.7555 31.8761 28.1227 34.2573 28.1227 37.2936C28.1242 38.9319 28.125 40.571 28.125 42.2108Z" fill="#484E55"/>
<path d="M31.875 38.454C31.875 37.2634 31.875 36.0728 31.875 34.8821C31.8748 34.4872 31.9525 34.0961 32.1036 33.7312C32.2546 33.3663 32.4761 33.0348 32.7554 32.7555C33.0347 32.4762 33.3662 32.2547 33.7311 32.1037C34.096 31.9526 34.4871 31.8749 34.882 31.8751C37.2633 31.8704 39.6461 31.8704 42.0305 31.8751C42.818 31.8849 43.5703 32.2033 44.1256 32.7619C44.6809 33.3205 44.9948 34.0746 45 34.8622C45.007 36.8345 45.0117 38.8056 44.9918 40.7767C44.9918 41.1575 45.0855 41.2642 45.4699 41.2571C46.8164 41.2325 48.1652 41.2431 49.5105 41.2489C50.2975 41.255 51.0507 41.5689 51.609 42.1235C52.1674 42.6781 52.4863 43.4292 52.4976 44.2161C52.5055 45.9911 52.5055 47.7673 52.4976 49.5446C52.4818 50.3213 52.1662 51.0618 51.6168 51.6111C51.0675 52.1604 50.3271 52.476 49.5504 52.4919C47.7738 52.5013 45.9976 52.5013 44.2219 52.4919C43.4344 52.4812 42.6824 52.1626 42.1269 51.6043C41.5714 51.0459 41.2567 50.2923 41.25 49.5048C41.2441 48.1384 41.2383 46.772 41.257 45.4032C41.257 45.0704 41.1656 44.9837 40.8375 44.986C38.8652 45.0013 36.8941 44.9966 34.923 44.9931C34.5232 44.9977 34.1264 44.9227 33.7559 44.7725C33.3853 44.6222 33.0484 44.3996 32.7648 44.1177C32.4812 43.8358 32.2566 43.5003 32.104 43.1307C31.9514 42.7611 31.874 42.3648 31.8762 41.9649C31.875 40.7966 31.875 39.6259 31.875 38.454Z" fill="#484E55"/>
<path d="M22.1484 24.3573C19.0629 24.3632 15.9785 24.3796 12.8906 24.3702C12.6747 24.3742 12.4602 24.3347 12.2598 24.254C12.0594 24.1734 11.8773 24.0534 11.7242 23.901C11.5712 23.7486 11.4503 23.567 11.3689 23.367C11.2874 23.1669 11.247 22.9526 11.25 22.7366C11.2359 19.4554 11.2359 16.1741 11.25 12.8929C11.2473 12.6771 11.288 12.463 11.3696 12.2633C11.4512 12.0635 11.5721 11.8822 11.7251 11.73C11.8781 11.5779 12.0601 11.458 12.2603 11.3776C12.4605 11.2971 12.6749 11.2577 12.8906 11.2616C15.975 11.2522 19.0594 11.2687 22.1484 11.2745C22.5902 11.6601 22.6582 12.2026 22.6629 12.7206C22.6996 16.1183 22.6996 19.5167 22.6629 22.9159C22.6594 23.4292 22.5914 23.9729 22.1484 24.3573Z" fill="#83CFD6"/>
<path d="M22.1484 24.3575C22.4391 23.584 22.5164 22.786 22.5094 21.961C22.4859 19.1977 22.4859 16.4348 22.5094 13.6723C22.5164 12.852 22.4391 12.0481 22.1484 11.2747C23.741 11.1915 24.375 11.7868 24.375 13.3665V22.2657C24.375 23.8442 23.741 24.4407 22.1484 24.3575Z" fill="#459096"/>
<path d="M46.5234 24.3573C43.4391 24.3632 40.3547 24.3796 37.2656 24.3702C37.0495 24.3742 36.8348 24.3346 36.6342 24.2538C36.4337 24.1731 36.2515 24.0528 36.0984 23.9002C35.9453 23.7475 35.8245 23.5656 35.7432 23.3653C35.6619 23.165 35.6217 22.9504 35.625 22.7343C35.6125 19.453 35.6125 16.1718 35.625 12.8905C35.6226 12.675 35.6635 12.4611 35.7453 12.2616C35.827 12.0622 35.948 11.8811 36.1009 11.7292C36.2539 11.5773 36.4358 11.4577 36.6359 11.3774C36.8359 11.297 37.0501 11.2577 37.2656 11.2616C40.3512 11.2522 43.4356 11.2687 46.5234 11.2745C46.9652 11.6601 47.0332 12.2026 47.0391 12.7206C47.0742 16.1183 47.0742 19.5167 47.0391 22.9159C47.0274 23.4292 46.9594 23.9729 46.5234 24.3573Z" fill="#83CFD6"/>
<path d="M46.5234 24.3575C46.8152 23.584 46.8914 22.786 46.8844 21.961C46.8625 19.1977 46.8625 16.4348 46.8844 13.6723C46.8914 12.852 46.8152 12.0481 46.5234 11.2747C48.1172 11.1915 48.75 11.7868 48.75 13.3665C48.75 16.3352 48.75 19.3016 48.75 22.2657C48.75 23.8442 48.109 24.4407 46.5234 24.3575Z" fill="#459096"/>
<path d="M22.1484 48.7253C19.0629 48.7323 15.9785 48.7476 12.8906 48.7394C12.6741 48.7432 12.4591 48.7033 12.2583 48.6222C12.0575 48.5411 11.8752 48.4204 11.722 48.2673C11.5689 48.1142 11.4482 47.9318 11.3671 47.7311C11.286 47.5303 11.2462 47.3152 11.25 47.0987C11.2359 43.8175 11.2359 40.5362 11.25 37.255C11.2475 37.0393 11.2882 36.8254 11.3699 36.6257C11.4516 36.4261 11.5725 36.2449 11.7255 36.0929C11.8785 35.9409 12.0605 35.8212 12.2606 35.7408C12.4607 35.6604 12.675 35.621 12.8906 35.6249C15.975 35.6167 19.0594 35.632 22.1484 35.639C22.5902 36.0234 22.6582 36.5671 22.6629 37.0839C22.6996 40.4816 22.6996 43.88 22.6629 47.2792C22.6594 47.7972 22.5914 48.3409 22.1484 48.7253Z" fill="#83CFD6"/>
<path d="M22.1484 48.7255C22.4391 47.952 22.5164 47.1551 22.5094 46.329C22.4859 43.5657 22.4859 40.8028 22.5094 38.0403C22.5164 37.2141 22.4391 36.4173 22.1484 35.6438C23.741 35.5606 24.375 36.1548 24.375 37.7344V46.6337C24.375 48.2122 23.741 48.8087 22.1484 48.7255Z" fill="#459096"/>
<path d="M38.3754 41.2501C37.5762 41.2501 36.777 41.2384 35.9766 41.2501C35.6953 41.256 35.6156 41.1693 35.6168 40.8892C35.6301 39.2485 35.6301 37.6103 35.6168 35.9743C35.6168 35.6931 35.6977 35.6122 35.9777 35.6146C37.6184 35.6263 39.2567 35.6263 40.8926 35.6146C41.1738 35.6146 41.2547 35.6954 41.2524 35.9755C41.2406 37.6161 41.2406 39.2544 41.2524 40.8903C41.2524 41.1716 41.1727 41.256 40.8914 41.2501C40.0535 41.236 39.2145 41.2501 38.3754 41.2501Z" fill="#83CFD6"/>
<path d="M46.9266 45.027C47.5219 45.0539 48.3176 44.7305 48.6551 45.1172C48.948 45.4524 48.7558 46.2293 48.7394 46.8106C48.7207 47.4457 49.0207 48.2953 48.6222 48.6516C48.2707 48.9645 47.4363 48.7547 46.8164 48.7395C46.2211 48.7254 45.4242 49.002 45.0879 48.6223C44.7949 48.2918 44.9883 47.5102 45.0047 46.9301C45.0234 46.2949 44.7234 45.443 45.1219 45.0891C45.4687 44.7832 46.3066 45.027 46.9266 45.027Z" fill="#83CFD6"/>
<path d="M17.8324 15C19.9231 14.8195 20.6672 15.6738 20.666 17.7996C20.6648 19.9254 19.9629 20.6649 17.7961 20.6625C15.6867 20.6625 14.9625 19.9219 14.9648 17.8207C14.9672 15.6797 15.6633 14.8277 17.8324 15Z" fill="#484E55"/>
<path d="M45 17.8289C45.1793 19.9383 44.3156 20.666 42.2039 20.6672C40.0395 20.6672 39.3352 19.9324 39.3375 17.8008C39.3398 15.6691 40.0582 14.9684 42.1723 14.9648C44.3109 14.9625 45.1723 15.675 45 17.8289Z" fill="#484E55"/>
<path d="M17.8184 39.3749C19.9476 39.191 20.6601 40.0781 20.666 42.1605C20.6719 44.3437 19.9277 45.0339 17.8113 45.0374C15.6609 45.0374 14.9684 44.2746 14.9648 42.2109C14.9601 40.0089 15.7031 39.1992 17.8184 39.3749Z" fill="#484E55"/>
</g>
<defs>
<clipPath id="clip0_1342_6265">
<rect width="60" height="60" fill="white"/>
</clipPath>
</defs>
</svg>
